<?xml version="1.0" encoding="UTF-8"?>
<svg id="Calque_1" xmlns="http://www.w3.org/2000/svg" version="1.1" viewBox="0 0 238 53.027">
  <!-- Generator: Adobe Illustrator 29.6.1, SVG Export Plug-In . SVG Version: 2.1.1 Build 9)  -->
  <defs>
    <style>
      .st0 {
        fill: #f28a19;
      }

      .st1 {
        fill: #111d30;
      }

      .st2 {
        fill: #1e3a5f;
      }

      .st3 {
        fill: #fff;
      }

      .st4 {
        fill: #0e4159;
      }

      .st5 {
        fill: #3a9d8a;
      }

      .st6 {
        fill: #121f31;
      }
    </style>
  </defs>
  <rect class="st2" y="0" width="238" height="53.027"/>
  <g>
    <path class="st0" d="M51.008,38.478c-1.524-1.418-2.286-3.32-2.286-5.704,0-.62.023-1.085.071-1.395l.893-7.223c.214-1.812.804-3.409,1.768-4.792.965-1.382,2.216-2.455,3.751-3.218,1.537-.763,3.257-1.145,5.163-1.145,2.644,0,4.734.668,6.27,2.003,1.537,1.335,2.305,3.135,2.305,5.4,0,.238-.024.643-.072,1.216,0,.095-.053.179-.16.25s-.232.119-.375.143l-5.538.358h-.107c-.286,0-.405-.131-.357-.393.023-.119.036-.298.036-.536,0-.835-.239-1.49-.715-1.967-.477-.477-1.132-.715-1.965-.715-.929,0-1.71.292-2.34.876-.631.585-1.006,1.365-1.125,2.343l-.929,7.689c-.024.119-.036.298-.036.536,0,.81.244,1.454.733,1.931.488.478,1.137.715,1.947.715.929,0,1.703-.291,2.322-.876.619-.584.988-1.353,1.107-2.306.024-.119.084-.221.179-.305.095-.083.226-.112.394-.089l5.466.286c.334.048.488.167.465.358-.214,1.717-.798,3.231-1.751,4.541-.953,1.312-2.197,2.331-3.733,3.058-1.537.728-3.257,1.091-5.163,1.091-2.62,0-4.693-.71-6.217-2.128Z"/>
    <path class="st0" d="M69.283,40.177c-.084-.095-.113-.226-.089-.393l2.966-23.96c.023-.166.083-.298.179-.393.095-.095.226-.143.393-.143h5.466c.167,0,.292.048.375.143.083.096.113.227.089.393l-2.929,23.96c-.024.167-.089.298-.197.393-.107.096-.244.143-.411.143h-5.466c-.167,0-.292-.047-.375-.143Z"/>
    <path class="st0" d="M95.131,15.431c.095-.095.226-.143.393-.143h5.466c.167,0,.292.048.375.143.083.096.113.227.089.393l-2.929,23.96c-.024.167-.089.298-.197.393-.107.096-.244.143-.411.143h-5.216c-.286,0-.477-.119-.572-.358l-5.573-12.087c-.048-.095-.096-.131-.143-.107-.048.024-.084.084-.107.179l-1.357,11.837c-.024.167-.089.298-.197.393-.107.096-.244.143-.411.143h-5.466c-.167,0-.292-.047-.375-.143-.084-.095-.113-.226-.089-.393l2.966-23.96c.023-.166.083-.298.179-.393.095-.095.226-.143.393-.143h5.216c.309,0,.512.119.607.358l5.502,12.087c.047.095.095.131.143.107.047-.023.083-.083.107-.179l1.429-11.837c.023-.166.083-.298.179-.393Z"/>
    <path class="st0" d="M120.962,20.902c-.096.096-.227.143-.394.143h-10.325c-.12,0-.203.072-.251.214l-.393,3.29c-.024.143.036.214.179.214h6.395c.143,0,.255.048.339.143.083.096.113.227.089.393l-.572,4.649c-.024.167-.084.298-.179.393-.096.096-.227.143-.393.143h-6.395c-.143,0-.214.071-.214.214l-.465,3.648c0,.142.059.214.179.214h10.325c.166,0,.292.048.375.143.083.095.112.226.089.393l-.572,4.685c-.024.167-.089.298-.196.393-.107.096-.232.143-.375.143h-16.541c-.167,0-.292-.047-.375-.143-.084-.095-.113-.226-.089-.393l2.966-23.96c.023-.166.083-.298.179-.393.095-.095.226-.143.393-.143h16.541c.143,0,.256.048.34.143.083.096.112.227.089.393l-.572,4.685c-.024.167-.084.298-.179.393ZM110.386,12.856c0-.119.036-.226.107-.321l2.108-3.29c.166-.262.393-.393.679-.393h4.68c.262,0,.393.084.393.25,0,.096-.06.227-.179.394l-2.823,3.361c-.191.215-.417.322-.679.322h-3.858c-.286,0-.429-.107-.429-.322Z"/>
    <path class="st3" d="M139.897,17.165c1.31,1.252,1.965,2.95,1.965,5.096,0,.549-.024.965-.071,1.252-.191,1.597-.721,3.004-1.59,4.22-.869,1.215-1.989,2.158-3.359,2.825-1.37.668-2.9,1.002-4.591,1.002h-3.644c-.119,0-.203.071-.251.214l-.964,8.011c-.024.167-.089.298-.197.393-.107.096-.244.143-.41.143h-5.467c-.167,0-.292-.047-.375-.143-.084-.095-.113-.226-.089-.393l2.966-23.96c.024-.166.083-.298.179-.393.095-.095.226-.143.393-.143h10.147c2.262,0,4.049.626,5.359,1.877ZM134.413,25.39c.607-.536.911-1.233.911-2.092,0-.691-.232-1.24-.696-1.645s-1.09-.608-1.876-.608h-2.858c-.119,0-.202.072-.25.214l-.572,4.721c0,.143.059.214.179.214h2.894c.904,0,1.661-.268,2.269-.805Z"/>
    <path class="st3" d="M157.171,15.431c.107-.095.232-.143.375-.143h5.502c.143,0,.256.048.34.143.083.096.112.227.089.393l-2.93,23.96c-.024.167-.089.298-.196.393-.107.096-.232.143-.375.143h-5.502c-.143,0-.256-.047-.339-.143-.084-.095-.114-.226-.089-.393l1.107-9.048c0-.142-.06-.214-.179-.214h-5.359c-.143,0-.214.072-.214.214l-1.107,9.048c-.024.167-.089.298-.197.393-.107.096-.244.143-.411.143h-5.466c-.167,0-.292-.047-.375-.143-.084-.095-.113-.226-.089-.393l2.966-23.96c.023-.166.083-.298.179-.393.095-.095.226-.143.393-.143h5.466c.167,0,.292.048.375.143.083.096.113.227.089.393l-1.072,8.726c-.024.143.036.214.179.214h5.324c.143,0,.226-.071.25-.214l1.072-8.726c.024-.166.089-.298.197-.393Z"/>
    <path class="st3" d="M167.639,39.748c-1.299-.667-2.299-1.609-3.001-2.825-.703-1.216-1.054-2.646-1.054-4.291,0-.476.036-.965.107-1.466l.822-6.723c.238-1.859.845-3.504,1.822-4.935.976-1.43,2.245-2.54,3.805-3.326,1.56-.786,3.305-1.18,5.234-1.18,1.762,0,3.299.328,4.608.983,1.31.657,2.317,1.586,3.019,2.79.702,1.204,1.054,2.616,1.054,4.238,0,.453-.036.93-.107,1.43l-.822,6.723c-.214,1.907-.816,3.582-1.805,5.024-.988,1.443-2.269,2.563-3.841,3.362-1.571.798-3.322,1.198-5.252,1.198-1.763,0-3.293-.334-4.591-1.001ZM175.41,34.008c.666-.655,1.059-1.532,1.179-2.628l.858-7.009c.024-.143.036-.358.036-.644,0-.906-.25-1.627-.75-2.163s-1.191-.805-2.072-.805c-.953,0-1.763.328-2.43.983-.667.656-1.06,1.532-1.179,2.628l-.857,7.009c-.024.143-.036.358-.036.644,0,.906.251,1.627.751,2.163.5.536,1.179.805,2.036.805.976,0,1.798-.328,2.465-.983Z"/>
    <path class="st3" d="M196.596,39.927l-2.68-9.048c-.048-.119-.131-.179-.25-.179h-1.358c-.119,0-.202.072-.25.214l-1.072,8.869c-.024.167-.089.298-.197.393-.107.096-.244.143-.411.143h-5.466c-.167,0-.292-.047-.375-.143-.084-.095-.113-.226-.089-.393l2.966-23.96c.023-.166.083-.298.179-.393.095-.095.226-.143.393-.143h10.504c2.144,0,3.846.608,5.109,1.824s1.894,2.861,1.894,4.935c0,.238-.024.643-.072,1.216-.191,1.573-.732,2.95-1.625,4.13-.893,1.18-2.031,2.044-3.412,2.593-.071.024-.119.066-.143.125-.024.06-.024.114,0,.161l3.215,9.405c.024.048.036.12.036.215,0,.119-.048.221-.143.304-.096.084-.227.125-.393.125h-5.824c-.286,0-.465-.131-.536-.393ZM193.237,21.259l-.5,4.112c0,.143.059.215.179.215h3.215c.809,0,1.483-.238,2.019-.715s.804-1.097.804-1.86c0-.596-.209-1.073-.625-1.43s-.959-.536-1.625-.536h-3.215c-.12,0-.203.072-.251.214Z"/>
    <path class="st3" d="M205.867,40.177c-.084-.095-.113-.226-.089-.393l2.966-23.96c.023-.166.083-.298.179-.393.095-.095.226-.143.393-.143h5.466c.167,0,.292.048.375.143.083.096.113.227.089.393l-2.929,23.96c-.024.167-.089.298-.197.393-.107.096-.244.143-.411.143h-5.466c-.167,0-.292-.047-.375-.143Z"/>
    <path class="st3" d="M230.607,39.855l-.393-2.753c-.024-.119-.096-.179-.214-.179h-7.253c-.095,0-.179.06-.25.179l-1.107,2.753c-.096.31-.31.465-.643.465h-5.895c-.405,0-.536-.203-.393-.608l10.254-23.996c.119-.286.334-.429.643-.429h7.36c.286,0,.465.143.536.429l4.359,23.996v.142c0,.31-.179.465-.536.465h-5.931c-.334,0-.512-.155-.536-.465ZM224.855,31.773h4.252c.143,0,.214-.083.214-.25l-1.215-7.903c-.024-.095-.066-.143-.125-.143s-.113.048-.16.143l-3.109,7.903c-.024.167.024.25.143.25Z"/>
  </g>
  <g>
    <path class="st5" d="M10.828,23.855l-.097.291c-.005.097.004.194,0,.291l-.097.388c-.002.223-.018.459,0,.68l.097.388.774,2.815c.376-1.166.933-2.31,1.65-3.301,4.089-5.644,8.29-4.156,13.191-6.699,2.813-1.459,3.152-3.832,6.94-3.888.778-.012,1.573.345,2.371.102-2.247,3.319-5.501.368-8.147,3.786-.041.053-.204.077-.194.193,3.095-.779,4.999,2.182,7.239,2.998.516.188,2.605.32,2.557.545-.065.305-1.603.276-1.894.247-1.618-.158-2.739-1.578-4.118-2.286-2.68-1.378-4.034-.836-6.695-.144-7.094,1.845-13.453,5.949-12.389,14.391,1.431,11.358,16.024,14.545,23.255,6.728,3.212-3.473-.523-8.251,5.524-11.073.315-.147,3.176-1.237,3.3-1.113.093.093-.652,2.094-.731,2.519-.179.966-.135,1.936-.383,2.917-1.147,4.531-5.287,3.822-7.517,7.331,1.99-.663,3.505-1.495,5.423-.089.268.197,2.404,2.413,2.141,2.661-.041.039-.801-.132-1.118-.1-1.059.107-1.983.414-3.089.283-1.523-.181-2.799-1.6-4.424-1.446.737-.781,5.134.081,5.334-.096.502-.446-2.532-.779-2.761-.774-3.705.085-6.904,4.282-12.613,4.278-8.588-.005-10.174-4.763-13.514-10.947-2.168-4.014-3.516-2.837-6.367-5.084-1.841-1.451-2.074-3.607-4.124-4.66-.012-.273.751-.342.934-.373,1.978-.338,4.59.033,6.147,1.394,2.257,1.974,1.882,5.428,3.393,7.815-.183-3.516.586-6.525-1.209-9.807-1.305-2.386-4.172-2.919-5.437-5.625-.912-1.95-.471-3.563-.967-5.44-.101-.382-.898-1.686-.823-1.747.265-.219,3.137.457,3.654.662,4.976,1.97,4.974,6.502,4.784,10.988ZM10.148,24.534c-.394-3.085-1.563-6.393-3.879-8.542l3.879,8.542ZM7.585,29.531c-.44-.428-1.098-.938-1.639-1.226-.084-.045-1.225-.7-1.131-.325l4.557,4.418c-.329-1.031-1.017-2.119-1.788-2.867ZM40.994,33.274c-.491-.489-3.982,5.343-3.685,6.115l3.685-6.115Z"/>
    <path class="st1" d="M23.419,22.04c16.024-1.16,15.931,23.397.07,22.2-13.303-1.004-13.501-21.228-.07-22.2ZM23.613,23.303c-12.542.915-11.727,20.829,2.004,19.579,12.204-1.111,11.171-20.54-2.004-19.579Z"/>
    <path class="st1" d="M27.511,18.71l13.867-.046c.271.154.256.31.301.573.094.558.104,5.755-.002,6.224-.037.162-.022.291-.198.385-.178.095-3.576.088-4.029.052-3.98-.319-5.454-3.122-8.945-4.347-1.698-.596-3.275-.759-5.067-.803l.969-.484c2.66-.692,4.015-1.234,6.695.144,1.378.709,2.499,2.128,4.118,2.286.291.028,1.829.057,1.894-.247.048-.226-2.041-.358-2.557-.545-2.24-.815-4.144-3.777-7.239-2.998-.01-.116.153-.14.194-.193Z"/>
    <path class="st1" d="M20.819,10.652c-.476,1.508-.88,3.092-1.455,4.563-.134.342-.748,1.996-.873,2.136-.225.252-1.901.855-2.393,1.149-1.356.809-2.841,2.191-3.186,3.8,3.249-4.141,8.663-3.898,13.435-3.59-4.902,2.543-9.103,1.055-13.191,6.699l-.678.679c-.313-2.249.121-4.59-.109-6.833-.074-.723-1.18-3.839-1.108-4.036.184-.497,8.433-4.028,9.557-4.567ZM12.816,22.399v.097l.048-.049-.048-.049Z"/>
    <path class="st1" d="M31.294,11.428c.884-1.085,1.537-5.556,2.425-6.99.605-.278,3.181-1.666,3.586-1.504.331.132,2.049,4.307,1.924,4.734-.124.422-6.988,3.451-7.935,3.761Z"/>
    <path class="st1" d="M29.645,6.38l-2.425,6.99c-1.475.701-2.981,1.35-4.462,2.039l2.231-6.796c1.556-.733,3.095-1.503,4.656-2.233Z"/>
    <path class="st4" d="M10.731,25.894l-.097-.388c.002.02.185.231.097.388Z"/>
    <path class="st4" d="M10.634,24.826l.097-.388c-.008.213-.097.368-.097.388Z"/>
    <path class="st4" d="M10.731,24.147l.097-.291c-.009.205-.096.276-.097.291Z"/>
    <polygon class="st6" points="12.816 22.399 12.865 22.448 12.816 22.496 12.816 22.399"/>
    <path class="st0" d="M33.233,5.548c.156-.45.316-.836.486-1.11-1.363.626-2.714,1.305-4.074,1.942l-2.425,6.99c.926-.44,1.807-.888,2.716-1.359.358-.185.984-.123,1.358-.582.558-.685,1.024-2.719,1.515-4.486.205-.534.356-1.01.424-1.394Z"/>
    <path class="st0" d="M20.819,10.652c-.339,1.074-.644,2.186-.997,3.269-.218.61-.396,1.114-.458,1.295-.134.342-.748,1.996-.873,2.136,1.472-.534,2.853-1.284,4.268-1.942l2.231-6.796c-1.403.661-2.777,1.37-4.171,2.039Z"/>
    <path class="st1" d="M23.613,23.788c12.848-1.02,13.579,18.049,1.52,18.705-12.611.687-13.44-17.759-1.52-18.705ZM23.897,25.239c-3.037.495-2.538,5.5.738,5.308,3.571-.21,3.043-5.924-.738-5.308ZM18.66,30.385c-2.857.413-2.855,4.926-.112,5.306,4.282.593,4.043-5.874.112-5.306ZM29.527,30.384c-3.266.278-3.11,5.339.167,5.41,3.727.08,3.594-5.729-.167-5.41ZM24.089,31.644c-1.74.381-1.051,3.564.997,2.744,1.531-.613.885-3.156-.997-2.744ZM24.094,35.628c-3.357.378-2.837,5.781.838,5.305,3.178-.412,2.701-5.703-.838-5.305Z"/>
  </g>
</svg>