<?xml version="1.0" encoding="UTF-8"?>
<svg id="Calque_1" xmlns="http://www.w3.org/2000/svg" version="1.1" viewBox="0 0 180.168 60">
  <!-- Generator: Adobe Illustrator 29.6.1, SVG Export Plug-In . SVG Version: 2.1.1 Build 9)  -->
  <defs>
    <style>
      .st0 {
        fill: #f28a19;
      }

      .st1 {
        fill: #111d30;
      }

      .st2 {
        fill: #fff;
      }

      .st3 {
        fill: #0e4159;
      }

      .st4 {
        fill: #3a9d8a;
      }

      .st5 {
        fill: #121f31;
      }
    </style>
  </defs>
  <rect class="st1" width="180.168" height="60"/>
  <g>
    <g>
      <path class="st0" d="M49.043,32.336c-.825-.767-1.237-1.795-1.237-3.084,0-.335.012-.587.039-.754l.483-3.906c.116-.98.435-1.844.957-2.591.522-.747,1.199-1.328,2.03-1.74.832-.412,1.763-.619,2.795-.619,1.431,0,2.562.361,3.394,1.083.832.722,1.248,1.695,1.248,2.92,0,.129-.013.348-.039.658,0,.051-.029.097-.087.135s-.126.065-.203.077l-2.997.193h-.058c-.155,0-.219-.071-.193-.213.012-.065.019-.161.019-.29,0-.451-.129-.806-.387-1.064-.258-.258-.613-.387-1.064-.387-.503,0-.925.158-1.267.474-.341.316-.545.738-.609,1.267l-.503,4.158c-.013.065-.019.161-.019.29,0,.438.132.786.397,1.044.264.258.615.387,1.054.387.503,0,.922-.157,1.257-.474.335-.316.535-.732.599-1.247.013-.065.045-.119.097-.165.051-.045.122-.061.213-.048l2.958.155c.181.026.264.09.252.193-.116.928-.432,1.747-.948,2.456-.516.709-1.189,1.26-2.021,1.654-.832.394-1.763.59-2.795.59-1.418,0-2.54-.384-3.365-1.151Z"/>
      <path class="st0" d="M58.935,33.255c-.045-.051-.061-.122-.048-.213l1.605-12.956c.012-.09.045-.161.097-.213.051-.051.122-.077.213-.077h2.958c.09,0,.158.026.203.077.045.052.061.123.048.213l-1.586,12.956c-.013.09-.048.161-.107.213-.058.052-.132.077-.222.077h-2.958c-.091,0-.158-.026-.203-.077Z"/>
      <path class="st0" d="M72.926,19.873c.051-.051.122-.077.213-.077h2.958c.09,0,.158.026.203.077.045.052.061.123.048.213l-1.586,12.956c-.013.09-.048.161-.107.213-.058.052-.132.077-.222.077h-2.823c-.155,0-.258-.064-.309-.193l-3.017-6.536c-.026-.051-.052-.071-.077-.058-.026.013-.045.045-.058.097l-.735,6.401c-.013.09-.048.161-.107.213-.058.052-.132.077-.222.077h-2.958c-.091,0-.158-.026-.203-.077-.045-.051-.061-.122-.048-.213l1.605-12.956c.012-.09.045-.161.097-.213.051-.051.122-.077.213-.077h2.823c.167,0,.277.065.329.193l2.978,6.536c.026.051.051.071.077.058.026-.012.045-.045.058-.097l.774-6.401c.012-.09.045-.161.097-.213Z"/>
      <path class="st0" d="M86.906,22.832c-.052.052-.123.077-.213.077h-5.588c-.065,0-.11.039-.136.116l-.213,1.779c-.013.077.019.116.097.116h3.462c.077,0,.138.026.184.077.045.052.061.123.048.213l-.309,2.514c-.013.09-.045.161-.097.213-.052.052-.123.077-.213.077h-3.462c-.077,0-.116.039-.116.116l-.252,1.973c0,.077.032.116.097.116h5.589c.09,0,.158.026.203.077.045.051.061.122.048.213l-.31,2.533c-.013.09-.048.161-.106.213-.058.052-.126.077-.203.077h-8.953c-.091,0-.158-.026-.203-.077-.045-.051-.061-.122-.048-.213l1.605-12.956c.012-.09.045-.161.097-.213.051-.051.122-.077.213-.077h8.953c.077,0,.139.026.184.077.045.052.061.123.048.213l-.309,2.533c-.013.09-.045.161-.097.213ZM81.182,18.481c0-.064.02-.122.058-.174l1.141-1.779c.09-.142.213-.213.367-.213h2.533c.142,0,.213.045.213.135,0,.052-.032.123-.097.213l-1.528,1.817c-.103.116-.225.174-.367.174h-2.088c-.155,0-.232-.058-.232-.174Z"/>
      <path class="st0" d="M97.155,20.811c.709.677,1.064,1.595,1.064,2.756,0,.297-.013.522-.039.677-.103.864-.39,1.624-.861,2.282-.471.657-1.076,1.167-1.818,1.527-.741.361-1.57.542-2.485.542h-1.972c-.065,0-.11.039-.136.116l-.522,4.332c-.013.09-.048.161-.107.213-.058.052-.132.077-.222.077h-2.959c-.09,0-.158-.026-.203-.077-.045-.051-.061-.122-.048-.213l1.605-12.956c.013-.09.045-.161.097-.213.051-.051.122-.077.213-.077h5.492c1.224,0,2.191.338,2.901,1.015ZM94.187,25.259c.329-.29.493-.667.493-1.131,0-.374-.125-.67-.377-.889s-.59-.329-1.015-.329h-1.547c-.065,0-.11.039-.135.116l-.31,2.553c0,.077.032.116.097.116h1.567c.489,0,.899-.145,1.228-.435Z"/>
      <path class="st0" d="M106.505,19.873c.058-.051.126-.077.203-.077h2.978c.077,0,.139.026.184.077.045.052.061.123.048.213l-1.586,12.956c-.013.09-.048.161-.106.213-.058.052-.126.077-.203.077h-2.978c-.077,0-.139-.026-.184-.077-.045-.051-.062-.122-.048-.213l.599-4.893c0-.077-.032-.116-.097-.116h-2.901c-.077,0-.116.039-.116.116l-.599,4.893c-.013.09-.048.161-.107.213-.058.052-.132.077-.222.077h-2.958c-.091,0-.158-.026-.203-.077-.045-.051-.061-.122-.048-.213l1.605-12.956c.012-.09.045-.161.097-.213.051-.051.122-.077.213-.077h2.958c.09,0,.158.026.203.077.045.052.061.123.048.213l-.58,4.718c-.013.077.019.116.097.116h2.881c.077,0,.122-.039.135-.116l.58-4.718c.013-.09.048-.161.107-.213Z"/>
      <path class="st0" d="M112.171,33.023c-.703-.361-1.244-.87-1.624-1.528-.38-.658-.57-1.431-.57-2.321,0-.258.019-.522.058-.793l.445-3.636c.129-1.005.457-1.895.986-2.668.528-.774,1.215-1.373,2.06-1.799.844-.425,1.789-.638,2.833-.638.954,0,1.785.178,2.494.532.709.355,1.254.858,1.634,1.508.38.651.57,1.415.57,2.291,0,.245-.019.503-.058.774l-.445,3.636c-.116,1.031-.442,1.937-.977,2.717-.535.78-1.228,1.386-2.079,1.818-.851.432-1.798.648-2.842.648-.954,0-1.782-.181-2.485-.541ZM116.376,29.919c.361-.354.573-.828.638-1.421l.464-3.79c.013-.077.019-.193.019-.348,0-.49-.135-.88-.406-1.17s-.645-.435-1.121-.435c-.516,0-.954.177-1.315.532-.361.355-.574.828-.638,1.421l-.464,3.79c-.013.077-.02.193-.02.348,0,.49.136.88.406,1.17.27.29.638.435,1.102.435.528,0,.973-.177,1.334-.532Z"/>
      <path class="st0" d="M127.843,33.12l-1.45-4.893c-.026-.064-.071-.097-.135-.097h-.735c-.065,0-.11.039-.135.116l-.58,4.796c-.013.09-.048.161-.107.213-.058.052-.132.077-.222.077h-2.958c-.091,0-.158-.026-.203-.077-.045-.051-.061-.122-.048-.213l1.605-12.956c.012-.09.045-.161.097-.213.051-.051.122-.077.213-.077h5.685c1.16,0,2.082.329,2.765.986s1.025,1.547,1.025,2.669c0,.129-.013.348-.039.658-.103.851-.396,1.595-.88,2.233-.483.638-1.099,1.105-1.847,1.402-.039.013-.065.036-.077.068-.013.032-.013.062,0,.087l1.74,5.086c.013.026.02.065.02.116,0,.065-.026.119-.077.164-.052.045-.123.068-.213.068h-3.152c-.155,0-.252-.071-.29-.213ZM126.026,23.025l-.271,2.224c0,.077.032.116.097.116h1.74c.438,0,.803-.129,1.093-.387s.435-.593.435-1.006c0-.322-.113-.58-.338-.774s-.519-.29-.88-.29h-1.74c-.065,0-.11.039-.136.116Z"/>
      <path class="st0" d="M132.861,33.255c-.045-.051-.061-.122-.048-.213l1.605-12.956c.012-.09.045-.161.097-.213.051-.051.122-.077.213-.077h2.958c.09,0,.158.026.203.077.045.052.061.123.048.213l-1.586,12.956c-.013.09-.048.161-.107.213-.058.052-.132.077-.222.077h-2.958c-.091,0-.158-.026-.203-.077Z"/>
      <path class="st0" d="M146.252,33.081l-.213-1.489c-.013-.064-.052-.097-.116-.097h-3.926c-.051,0-.097.032-.135.097l-.599,1.489c-.052.168-.168.252-.348.252h-3.191c-.219,0-.29-.11-.213-.329l5.55-12.976c.065-.154.181-.232.348-.232h3.983c.155,0,.252.077.29.232l2.359,12.976v.077c0,.168-.097.252-.29.252h-3.21c-.181,0-.277-.084-.29-.252ZM143.139,28.711h2.301c.077,0,.116-.045.116-.135l-.658-4.274c-.013-.051-.036-.077-.068-.077s-.061.026-.087.077l-1.683,4.274c-.013.09.013.135.077.135Z"/>
      <path class="st2" d="M48.315,44.09c-.328-.309-.492-.724-.492-1.244,0-.068.006-.17.019-.306l.325-2.645c.049-.396.178-.744.385-1.044.207-.3.476-.534.808-.701.331-.167.701-.251,1.109-.251.557,0,1.001.152,1.332.455.331.303.497.709.497,1.216,0,.062-.006.161-.019.297v.009c0,.025-.009.048-.028.069-.019.022-.043.032-.074.032l-.297.019c-.062,0-.086-.031-.074-.093v-.028c.012-.099.019-.176.019-.232,0-.396-.127-.713-.381-.951-.254-.238-.594-.357-1.021-.357-.477,0-.877.141-1.202.422-.325.282-.518.655-.58,1.119l-.325,2.692c-.012.111-.019.189-.019.232,0,.403.127.723.381.961.253.238.597.357,1.03.357.47,0,.868-.142,1.193-.427.325-.285.515-.659.571-1.123l.009-.019c0-.025.009-.045.028-.06s.04-.023.065-.023l.297.019c.056,0,.083.028.083.083-.049.39-.179.735-.39,1.035-.21.3-.481.534-.812.701-.331.167-.698.25-1.1.25-.563,0-1.009-.154-1.337-.464Z"/>
      <path class="st2" d="M53.267,44.434c-.015-.019-.02-.04-.014-.065l.548-4.493c.006-.025.019-.046.037-.065s.04-.028.065-.028h.297c.031,0,.054.009.069.028s.02.04.014.065l-.557,4.493c0,.025-.009.046-.028.065-.019.019-.043.028-.074.028h-.297c-.025,0-.045-.009-.06-.028ZM53.903,38.749c-.074-.071-.111-.165-.111-.283,0-.154.049-.283.149-.385.099-.102.219-.153.362-.153.117,0,.213.037.288.111.074.074.111.173.111.297,0,.148-.05.272-.148.371-.099.099-.22.149-.362.149-.117,0-.213-.036-.288-.107Z"/>
      <path class="st2" d="M58.804,40.094c.247.245.371.571.371.979,0,.05-.006.13-.019.241l-.38,3.063c-.012.062-.046.093-.102.093h-.297c-.062,0-.087-.031-.074-.093l.362-2.97c.006-.043.009-.108.009-.195,0-.316-.093-.569-.278-.761-.185-.192-.436-.288-.752-.288-.359,0-.662.113-.91.339s-.396.521-.446.886l-.362,2.989c-.012.062-.046.093-.102.093h-.297c-.031,0-.054-.009-.069-.028s-.02-.04-.014-.065l.557-4.493c0-.025.009-.046.028-.065.019-.019.043-.028.074-.028h.297c.025,0,.045.009.06.028.015.019.02.04.014.065l-.056.455c0,.037.012.043.037.019.154-.204.346-.36.576-.469.229-.108.486-.162.77-.162.421,0,.755.122,1.003.366Z"/>
      <path class="st2" d="M62.684,43.909c.223-.133.402-.317.538-.552.037-.056.077-.071.121-.046l.223.12c.049.037.059.078.028.121-.173.303-.412.545-.715.724-.303.179-.647.269-1.03.269-.427,0-.774-.105-1.04-.316-.266-.21-.43-.498-.492-.863-.025-.117-.037-.256-.037-.417,0-.186.022-.461.065-.826.037-.303.068-.532.093-.687.025-.155.062-.297.111-.427.149-.39.385-.702.71-.937.325-.235.701-.353,1.128-.353.52,0,.908.142,1.165.427.256.284.385.678.385,1.179,0,.167-.025.461-.074.882-.012.062-.046.093-.102.093h-2.933c-.025,0-.04.012-.046.037-.037.266-.056.479-.056.64,0,.347.107.622.32.826.213.204.509.306.886.306.278,0,.529-.066.752-.2ZM60.846,41.844c-.006.025.003.037.028.037h2.516c.025,0,.037-.012.037-.037.025-.198.037-.39.037-.576,0-.328-.1-.595-.302-.803-.201-.207-.475-.311-.821-.311-.328,0-.611.088-.849.265-.238.176-.404.41-.497.701-.043.111-.093.353-.148.724ZM62.141,39.138c-.009-.022-.002-.048.023-.079l.668-1.021c.031-.043.071-.065.121-.065h.26c.037,0,.06.011.069.032s.002.048-.023.079l-.724,1.021c-.043.043-.084.065-.121.065h-.204c-.037,0-.06-.011-.069-.032Z"/>
      <path class="st2" d="M70.991,40.067c.229.226.344.537.344.933,0,.049-.006.136-.019.26l-.39,3.119c0,.025-.009.046-.028.065-.019.019-.043.028-.074.028h-.288c-.025,0-.045-.009-.06-.028s-.02-.04-.014-.065l.371-3.026c.006-.043.009-.111.009-.204,0-.303-.09-.543-.269-.719s-.418-.264-.715-.264c-.347,0-.639.105-.877.315-.238.211-.379.495-.423.854l-.371,3.045c-.006.025-.019.046-.037.065s-.04.028-.065.028h-.288c-.031,0-.054-.009-.069-.028s-.02-.04-.014-.065l.371-3.026c.006-.049.009-.117.009-.204,0-.303-.087-.543-.26-.719-.173-.176-.408-.264-.705-.264-.353,0-.647.105-.882.315-.235.211-.375.495-.418.854l-.371,3.045c-.012.062-.046.093-.102.093h-.297c-.031,0-.054-.009-.069-.028s-.02-.04-.014-.065l.557-4.493c0-.025.009-.046.028-.065.019-.019.043-.028.074-.028h.297c.025,0,.045.009.06.028.015.019.02.04.014.065l-.046.418c-.006.012-.003.022.009.028.012.006.022.003.028-.009.155-.198.345-.347.571-.446s.472-.148.738-.148c.309,0,.569.069.78.209.21.139.356.336.436.589.006.025.019.028.037.009.161-.266.37-.467.627-.604.257-.136.546-.204.868-.204.396,0,.709.113.937.339Z"/>
      <path class="st2" d="M75.901,39.793h.297c.056,0,.084.031.084.093l-.557,4.493c-.012.062-.046.093-.102.093h-.297c-.062,0-.086-.031-.074-.093l.065-.575c.006-.019.003-.029-.009-.032-.012-.003-.022.005-.028.023-.154.235-.346.419-.575.552-.229.133-.495.2-.798.2-.396,0-.724-.116-.984-.348s-.408-.537-.446-.914c-.006-.049-.009-.13-.009-.241,0-.154.015-.38.046-.678l.028-.223c.043-.315.079-.557.107-.724.028-.167.069-.321.125-.464.136-.365.36-.662.673-.891.312-.229.67-.343,1.072-.343.297,0,.543.065.738.195s.339.313.432.548c.006.012.014.019.023.019.009,0,.017-.009.023-.028l.065-.567c.012-.062.046-.093.102-.093ZM75.433,42.809c.022-.111.051-.334.088-.669.049-.402.074-.671.074-.808,0-.086-.003-.154-.009-.204-.012-.285-.11-.518-.292-.701-.182-.182-.428-.274-.738-.274-.315,0-.594.093-.835.278-.241.186-.409.421-.501.706-.037.099-.067.206-.088.32-.022.114-.051.339-.088.673-.056.439-.084.721-.084.845,0,.068.003.118.009.148.012.285.12.52.325.706.204.186.461.279.77.279.316,0,.586-.093.812-.279.226-.185.382-.421.469-.706.037-.099.066-.204.088-.315Z"/>
      <path class="st2" d="M77.312,44.327c-.074-.071-.111-.165-.111-.283,0-.155.049-.283.148-.385.099-.102.223-.153.371-.153.117,0,.212.037.283.111.071.074.107.173.107.297,0,.149-.049.273-.148.371-.099.099-.219.149-.362.149-.118,0-.213-.036-.288-.107Z"/>
      <path class="st2" d="M86.325,38.382c-.019.019-.04.028-.065.028h-3.416c-.025,0-.037.012-.037.037l-.316,2.506c0,.025.012.037.037.037h2.423c.062,0,.086.031.074.093l-.028.25c-.012.062-.046.093-.102.093h-2.423c-.025,0-.037.012-.037.037l-.315,2.534c0,.025.012.037.037.037h3.407c.056,0,.083.031.083.093l-.037.25c0,.025-.009.046-.028.065s-.043.028-.074.028h-3.834c-.062,0-.086-.031-.074-.093l.77-6.312c.012-.062.046-.093.102-.093h3.834c.031,0,.054.009.069.028.015.019.02.04.014.065l-.028.25c-.006.025-.019.046-.037.065ZM84.12,37.319c-.009-.022-.002-.048.023-.079l.669-1.021c.031-.043.071-.065.12-.065h.26c.037,0,.06.011.069.032.009.022.002.048-.023.079l-.724,1.021c-.043.043-.084.065-.121.065h-.204c-.037,0-.06-.011-.069-.032Z"/>
      <path class="st2" d="M92.97,40.067c.229.226.344.537.344.933,0,.049-.006.136-.019.26l-.39,3.119c0,.025-.009.046-.028.065-.019.019-.043.028-.074.028h-.288c-.025,0-.045-.009-.06-.028s-.02-.04-.014-.065l.371-3.026c.006-.043.009-.111.009-.204,0-.303-.09-.543-.269-.719s-.418-.264-.715-.264c-.347,0-.639.105-.877.315-.238.211-.379.495-.423.854l-.371,3.045c-.006.025-.019.046-.037.065s-.04.028-.065.028h-.288c-.031,0-.054-.009-.069-.028s-.02-.04-.014-.065l.371-3.026c.006-.049.009-.117.009-.204,0-.303-.087-.543-.26-.719-.173-.176-.408-.264-.705-.264-.353,0-.647.105-.882.315-.235.211-.375.495-.418.854l-.371,3.045c-.012.062-.046.093-.102.093h-.297c-.031,0-.054-.009-.069-.028s-.02-.04-.014-.065l.557-4.493c0-.025.009-.046.028-.065.019-.019.043-.028.074-.028h.297c.025,0,.045.009.06.028.015.019.02.04.014.065l-.046.418c-.006.012-.003.022.009.028.012.006.022.003.028-.009.155-.198.345-.347.571-.446s.472-.148.738-.148c.309,0,.569.069.78.209.21.139.356.336.436.589.006.025.019.028.037.009.161-.266.37-.467.627-.604.257-.136.546-.204.868-.204.396,0,.709.113.937.339Z"/>
      <path class="st2" d="M94.906,44.207c-.269-.226-.435-.534-.497-.924-.012-.068-.019-.182-.019-.343,0-.247.022-.52.065-.817.056-.507.133-.891.232-1.151.155-.384.396-.689.724-.914.328-.226.706-.339,1.133-.339.421,0,.77.114,1.049.343.278.229.442.533.492.91.012.062.019.167.019.315,0,.186-.022.464-.065.835-.037.285-.073.514-.107.687s-.076.331-.125.473c-.155.384-.398.69-.729.919-.331.229-.707.344-1.128.344-.427,0-.775-.113-1.044-.339ZM96.851,43.835c.247-.183.421-.423.52-.719.068-.179.13-.507.185-.984.049-.384.074-.665.074-.845,0-.334-.103-.606-.311-.817s-.484-.316-.831-.316c-.322,0-.605.09-.849.269-.245.179-.42.421-.525.724-.074.204-.136.532-.186.984-.043.377-.065.641-.065.789,0,.093.003.158.009.195.025.303.137.545.339.724.201.179.463.269.784.269s.606-.091.854-.274Z"/>
      <path class="st2" d="M101.519,40.183c-.019.019-.043.028-.074.028h-1.049c-.019,0-.034.012-.046.037l-.352,2.933c-.012.111-.019.185-.019.223,0,.235.063.399.19.492.127.093.323.139.59.139h.213c.062,0,.086.031.074.093l-.028.25c-.012.062-.046.093-.102.093l-.269.009c-.378,0-.664-.065-.858-.195-.195-.13-.293-.368-.293-.715,0-.049.006-.136.019-.26l.371-3.063c0-.025-.009-.037-.028-.037h-.548c-.025,0-.045-.009-.06-.028s-.02-.04-.014-.065l.028-.232c.012-.062.046-.093.102-.093h.539c.019,0,.034-.012.046-.037l.13-1.058c0-.025.009-.046.028-.065.019-.019.04-.028.065-.028h.297c.025,0,.045.009.06.028.015.019.02.04.014.065l-.13,1.058c0,.025.009.037.028.037h1.058c.062,0,.086.031.074.093l-.028.232c0,.025-.009.046-.028.065Z"/>
      <path class="st2" d="M102.499,44.434c-.015-.019-.02-.04-.014-.065l.548-4.493c.006-.025.019-.046.037-.065s.04-.028.065-.028h.297c.031,0,.054.009.069.028s.02.04.014.065l-.557,4.493c0,.025-.009.046-.028.065-.019.019-.043.028-.074.028h-.297c-.025,0-.045-.009-.06-.028ZM103.134,38.749c-.074-.071-.111-.165-.111-.283,0-.154.049-.283.149-.385.099-.102.219-.153.362-.153.117,0,.213.037.288.111.074.074.111.173.111.297,0,.148-.05.272-.148.371-.099.099-.22.149-.362.149-.117,0-.213-.036-.288-.107Z"/>
      <path class="st2" d="M105.255,44.207c-.269-.226-.435-.534-.497-.924-.012-.068-.019-.182-.019-.343,0-.247.022-.52.065-.817.056-.507.133-.891.232-1.151.155-.384.396-.689.724-.914.328-.226.706-.339,1.133-.339.421,0,.77.114,1.049.343.278.229.442.533.492.91.012.062.019.167.019.315,0,.186-.022.464-.065.835-.037.285-.073.514-.107.687s-.076.331-.125.473c-.155.384-.398.69-.729.919-.331.229-.707.344-1.128.344-.427,0-.775-.113-1.044-.339ZM107.2,43.835c.247-.183.421-.423.52-.719.068-.179.13-.507.185-.984.049-.384.074-.665.074-.845,0-.334-.103-.606-.311-.817s-.484-.316-.831-.316c-.322,0-.605.09-.849.269-.245.179-.42.421-.525.724-.074.204-.136.532-.186.984-.043.377-.065.641-.065.789,0,.093.003.158.009.195.025.303.137.545.339.724.201.179.463.269.784.269s.606-.091.854-.274Z"/>
      <path class="st2" d="M112.881,40.094c.247.245.371.571.371.979,0,.05-.006.13-.019.241l-.38,3.063c-.012.062-.046.093-.102.093h-.297c-.062,0-.087-.031-.074-.093l.362-2.97c.006-.043.009-.108.009-.195,0-.316-.093-.569-.278-.761-.185-.192-.436-.288-.752-.288-.359,0-.662.113-.91.339s-.396.521-.446.886l-.362,2.989c-.012.062-.046.093-.102.093h-.297c-.031,0-.054-.009-.069-.028s-.02-.04-.014-.065l.557-4.493c0-.025.009-.046.028-.065.019-.019.043-.028.074-.028h.297c.025,0,.045.009.06.028.015.019.02.04.014.065l-.056.455c0,.037.012.043.037.019.154-.204.346-.36.576-.469.229-.108.486-.162.77-.162.421,0,.755.122,1.003.366Z"/>
      <path class="st2" d="M114.658,44.207c-.275-.207-.413-.469-.413-.784,0-.049.003-.09.009-.121l.019-.12c.012-.062.046-.093.102-.093h.278c.062,0,.087.031.074.093l-.009.102c-.019.148.014.286.098.413.083.127.21.229.38.306s.37.116.599.116c.359,0,.658-.093.896-.278.238-.186.357-.412.357-.678,0-.155-.049-.282-.148-.381s-.215-.175-.348-.227-.336-.125-.608-.218c-.303-.099-.547-.19-.729-.274-.182-.084-.337-.2-.464-.348s-.19-.334-.19-.557c0-.421.162-.76.487-1.016.325-.256.744-.385,1.258-.385.446,0,.801.102,1.067.306.266.204.399.468.399.789,0,.062-.003.108-.009.139v.028c-.012.062-.046.093-.102.093h-.278c-.031,0-.054-.009-.07-.028s-.02-.04-.014-.065l.009-.028c.031-.235-.051-.432-.246-.59-.195-.157-.469-.236-.821-.236-.334,0-.613.073-.835.218-.223.145-.35.342-.381.59-.025.235.051.412.228.529s.456.238.84.362c.328.105.582.198.761.278.179.081.337.197.473.348.136.152.204.345.204.58,0,.062-.003.111-.009.148-.049.39-.235.704-.557.942s-.724.357-1.207.357c-.458,0-.824-.103-1.1-.311Z"/>
      <path class="st2" d="M118.83,44.327c-.074-.071-.111-.165-.111-.283,0-.155.049-.283.148-.385.099-.102.223-.153.371-.153.117,0,.212.037.283.111.071.074.107.173.107.297,0,.149-.049.273-.148.371-.099.099-.219.149-.362.149-.118,0-.213-.036-.288-.107Z"/>
      <path class="st2" d="M127.843,38.382c-.019.019-.04.028-.065.028h-3.416c-.025,0-.037.012-.037.037l-.316,2.506c0,.025.012.037.037.037h2.423c.062,0,.086.031.074.093l-.028.25c-.012.062-.046.093-.102.093h-2.423c-.025,0-.037.012-.037.037l-.315,2.534c0,.025.012.037.037.037h3.407c.056,0,.083.031.083.093l-.037.25c0,.025-.009.046-.028.065s-.043.028-.074.028h-3.834c-.062,0-.086-.031-.074-.093l.77-6.312c.012-.062.046-.093.102-.093h3.834c.031,0,.054.009.069.028.015.019.02.04.014.065l-.028.25c-.006.025-.019.046-.037.065Z"/>
      <path class="st2" d="M131.834,40.094c.247.245.371.571.371.979,0,.05-.006.13-.019.241l-.38,3.063c-.012.062-.046.093-.102.093h-.297c-.062,0-.087-.031-.074-.093l.362-2.97c.006-.043.009-.108.009-.195,0-.316-.093-.569-.278-.761-.185-.192-.436-.288-.752-.288-.359,0-.662.113-.91.339s-.396.521-.446.886l-.362,2.989c-.012.062-.046.093-.102.093h-.297c-.031,0-.054-.009-.069-.028s-.02-.04-.014-.065l.557-4.493c0-.025.009-.046.028-.065.019-.019.043-.028.074-.028h.297c.025,0,.045.009.06.028.015.019.02.04.014.065l-.056.455c0,.037.012.043.037.019.154-.204.346-.36.576-.469.229-.108.486-.162.77-.162.421,0,.755.122,1.003.366Z"/>
      <path class="st2" d="M136.772,39.793h.297c.056,0,.083.031.083.093l-.557,4.484c-.087.699-.353,1.207-.798,1.522-.445.316-1.039.458-1.782.427-.056-.012-.08-.046-.074-.102l.046-.269c0-.025.009-.046.028-.065.019-.019.043-.028.074-.028.638.025,1.119-.085,1.444-.33s.521-.633.59-1.165l.056-.464c.006-.019.005-.029-.005-.032-.009-.003-.02.002-.032.014-.334.427-.774.641-1.318.641-.39,0-.718-.11-.984-.33-.266-.219-.424-.521-.474-.905-.012-.136-.019-.247-.019-.334,0-.223.019-.492.056-.808.037-.278.074-.51.111-.696.037-.185.086-.353.148-.501.142-.365.368-.661.678-.886.309-.226.662-.339,1.058-.339.551,0,.94.21,1.169.631.006.012.015.015.028.009s.019-.015.019-.028l.056-.446c.012-.062.046-.093.102-.093ZM136.312,42.763c.022-.136.051-.346.088-.631s.06-.495.069-.631c.009-.136.011-.257.005-.362-.012-.284-.111-.52-.297-.706-.186-.185-.433-.278-.743-.278-.316,0-.593.093-.831.278-.238.186-.41.421-.515.706-.08.204-.148.532-.204.984-.031.272-.046.517-.046.733,0,.13.003.213.009.25.031.285.144.52.339.706.195.186.45.278.766.278s.586-.093.812-.278c.226-.185.382-.421.469-.706.031-.093.057-.207.079-.343Z"/>
      <path class="st2" d="M141.562,39.793h.297c.056,0,.084.031.084.093l-.557,4.493c-.012.062-.046.093-.102.093h-.297c-.062,0-.086-.031-.074-.093l.065-.575c.006-.019.003-.029-.009-.032-.012-.003-.022.005-.028.023-.154.235-.346.419-.575.552-.229.133-.495.2-.798.2-.396,0-.724-.116-.984-.348s-.408-.537-.446-.914c-.006-.049-.009-.13-.009-.241,0-.154.015-.38.046-.678l.028-.223c.043-.315.079-.557.107-.724.028-.167.069-.321.125-.464.136-.365.36-.662.673-.891.312-.229.67-.343,1.072-.343.297,0,.543.065.738.195s.339.313.432.548c.006.012.014.019.023.019.009,0,.017-.009.023-.028l.065-.567c.012-.062.046-.093.102-.093ZM141.093,42.809c.022-.111.051-.334.088-.669.049-.402.074-.671.074-.808,0-.086-.003-.154-.009-.204-.012-.285-.11-.518-.292-.701-.182-.182-.428-.274-.738-.274-.315,0-.594.093-.835.278-.241.186-.409.421-.501.706-.037.099-.067.206-.088.32-.022.114-.051.339-.088.673-.056.439-.084.721-.084.845,0,.068.003.118.009.148.012.285.12.52.325.706.204.186.461.279.77.279.316,0,.586-.093.812-.279.226-.185.382-.421.469-.706.037-.099.066-.204.088-.315Z"/>
      <path class="st2" d="M146.407,39.793h.297c.056,0,.083.031.083.093l-.557,4.484c-.087.699-.353,1.207-.798,1.522-.445.316-1.039.458-1.782.427-.056-.012-.08-.046-.074-.102l.046-.269c0-.025.009-.046.028-.065.019-.019.043-.028.074-.028.638.025,1.119-.085,1.444-.33s.521-.633.59-1.165l.056-.464c.006-.019.005-.029-.005-.032-.009-.003-.02.002-.032.014-.334.427-.774.641-1.318.641-.39,0-.718-.11-.984-.33-.266-.219-.424-.521-.474-.905-.012-.136-.019-.247-.019-.334,0-.223.019-.492.056-.808.037-.278.074-.51.111-.696.037-.185.086-.353.148-.501.142-.365.368-.661.678-.886.309-.226.662-.339,1.058-.339.551,0,.94.21,1.169.631.006.012.015.015.028.009s.019-.015.019-.028l.056-.446c.012-.062.046-.093.102-.093ZM145.947,42.763c.022-.136.051-.346.088-.631s.06-.495.069-.631c.009-.136.011-.257.005-.362-.012-.284-.111-.52-.297-.706-.186-.185-.433-.278-.743-.278-.316,0-.593.093-.831.278-.238.186-.41.421-.515.706-.08.204-.148.532-.204.984-.031.272-.046.517-.046.733,0,.13.003.213.009.25.031.285.144.52.339.706.195.186.45.278.766.278s.586-.093.812-.278c.226-.185.382-.421.469-.706.031-.093.057-.207.079-.343Z"/>
      <path class="st2" d="M150.194,43.909c.223-.133.402-.317.538-.552.037-.056.077-.071.121-.046l.223.12c.049.037.059.078.028.121-.173.303-.412.545-.715.724-.303.179-.647.269-1.03.269-.427,0-.774-.105-1.04-.316-.266-.21-.43-.498-.492-.863-.025-.117-.037-.256-.037-.417,0-.186.022-.461.065-.826.037-.303.068-.532.093-.687.025-.155.062-.297.111-.427.149-.39.385-.702.71-.937.325-.235.701-.353,1.128-.353.52,0,.908.142,1.165.427.256.284.385.678.385,1.179,0,.167-.025.461-.074.882-.012.062-.046.093-.102.093h-2.933c-.025,0-.04.012-.046.037-.037.266-.056.479-.056.64,0,.347.107.622.32.826.213.204.509.306.886.306.278,0,.529-.066.752-.2ZM148.356,41.844c-.006.025.003.037.028.037h2.516c.025,0,.037-.012.037-.037.025-.198.037-.39.037-.576,0-.328-.1-.595-.302-.803-.201-.207-.475-.311-.821-.311-.328,0-.611.088-.849.265-.238.176-.404.41-.497.701-.043.111-.093.353-.148.724Z"/>
      <path class="st2" d="M158.501,40.067c.229.226.344.537.344.933,0,.049-.006.136-.019.26l-.39,3.119c0,.025-.009.046-.028.065-.019.019-.043.028-.074.028h-.288c-.025,0-.045-.009-.06-.028s-.02-.04-.014-.065l.371-3.026c.006-.043.009-.111.009-.204,0-.303-.09-.543-.269-.719s-.418-.264-.715-.264c-.347,0-.639.105-.877.315-.238.211-.379.495-.423.854l-.371,3.045c-.006.025-.019.046-.037.065s-.04.028-.065.028h-.288c-.031,0-.054-.009-.069-.028s-.02-.04-.014-.065l.371-3.026c.006-.049.009-.117.009-.204,0-.303-.087-.543-.26-.719-.173-.176-.408-.264-.705-.264-.353,0-.647.105-.882.315-.235.211-.375.495-.418.854l-.371,3.045c-.012.062-.046.093-.102.093h-.297c-.031,0-.054-.009-.069-.028s-.02-.04-.014-.065l.557-4.493c0-.025.009-.046.028-.065.019-.019.043-.028.074-.028h.297c.025,0,.045.009.06.028.015.019.02.04.014.065l-.046.418c-.006.012-.003.022.009.028.012.006.022.003.028-.009.155-.198.345-.347.571-.446s.472-.148.738-.148c.309,0,.569.069.78.209.21.139.356.336.436.589.006.025.019.028.037.009.161-.266.37-.467.627-.604.257-.136.546-.204.868-.204.396,0,.709.113.937.339Z"/>
      <path class="st2" d="M162.334,43.909c.223-.133.402-.317.538-.552.037-.056.077-.071.121-.046l.223.12c.049.037.059.078.028.121-.173.303-.412.545-.715.724-.303.179-.647.269-1.03.269-.427,0-.774-.105-1.04-.316-.266-.21-.43-.498-.492-.863-.025-.117-.037-.256-.037-.417,0-.186.022-.461.065-.826.037-.303.068-.532.093-.687.025-.155.062-.297.111-.427.149-.39.385-.702.71-.937.325-.235.701-.353,1.128-.353.52,0,.908.142,1.165.427.256.284.385.678.385,1.179,0,.167-.025.461-.074.882-.012.062-.046.093-.102.093h-2.933c-.025,0-.04.012-.046.037-.037.266-.056.479-.056.64,0,.347.107.622.32.826.213.204.509.306.886.306.278,0,.529-.066.752-.2ZM160.497,41.844c-.006.025.003.037.028.037h2.516c.025,0,.037-.012.037-.037.025-.198.037-.39.037-.576,0-.328-.1-.595-.302-.803-.201-.207-.475-.311-.821-.311-.328,0-.611.088-.849.265-.238.176-.404.41-.497.701-.043.111-.093.353-.148.724Z"/>
      <path class="st2" d="M167.987,40.094c.247.245.371.571.371.979,0,.05-.006.13-.019.241l-.38,3.063c-.012.062-.046.093-.102.093h-.297c-.062,0-.087-.031-.074-.093l.362-2.97c.006-.043.009-.108.009-.195,0-.316-.093-.569-.278-.761-.185-.192-.436-.288-.752-.288-.359,0-.662.113-.91.339s-.396.521-.446.886l-.362,2.989c-.012.062-.046.093-.102.093h-.297c-.031,0-.054-.009-.069-.028s-.02-.04-.014-.065l.557-4.493c0-.025.009-.046.028-.065.019-.019.043-.028.074-.028h.297c.025,0,.045.009.06.028.015.019.02.04.014.065l-.056.455c0,.037.012.043.037.019.154-.204.346-.36.576-.469.229-.108.486-.162.77-.162.421,0,.755.122,1.003.366Z"/>
      <path class="st2" d="M171.848,40.183c-.019.019-.043.028-.074.028h-1.049c-.019,0-.034.012-.046.037l-.352,2.933c-.012.111-.019.185-.019.223,0,.235.063.399.19.492.127.093.323.139.59.139h.213c.062,0,.086.031.074.093l-.028.25c-.012.062-.046.093-.102.093l-.269.009c-.378,0-.664-.065-.858-.195-.195-.13-.293-.368-.293-.715,0-.049.006-.136.019-.26l.371-3.063c0-.025-.009-.037-.028-.037h-.548c-.025,0-.045-.009-.06-.028s-.02-.04-.014-.065l.028-.232c.012-.062.046-.093.102-.093h.539c.019,0,.034-.012.046-.037l.13-1.058c0-.025.009-.046.028-.065.019-.019.04-.028.065-.028h.297c.025,0,.045.009.06.028.015.019.02.04.014.065l-.13,1.058c0,.025.009.037.028.037h1.058c.062,0,.086.031.074.093l-.028.232c0,.025-.009.046-.028.065Z"/>
      <path class="st2" d="M172.879,44.327c-.074-.071-.111-.165-.111-.283,0-.155.049-.283.148-.385.099-.102.223-.153.371-.153.117,0,.212.037.283.111.071.074.107.173.107.297,0,.149-.049.273-.148.371-.099.099-.219.149-.362.149-.118,0-.213-.036-.288-.107Z"/>
    </g>
    <g>
      <path class="st4" d="M15.438,30.513l-.083.249c-.004.083.003.166,0,.249l-.083.331c-.002.19-.015.391,0,.58l.083.331.661,2.402c.321-.995.797-1.971,1.41-2.817,3.492-4.816,7.081-3.547,11.268-5.717,2.403-1.245,2.693-3.27,5.928-3.318.664-.01,1.343.294,2.025.087-1.92,2.832-4.699.314-6.959,3.231-.035.045-.174.065-.166.165,2.644-.665,4.27,1.862,6.184,2.558.44.16,2.225.273,2.184.465-.056.26-1.369.235-1.618.211-1.382-.135-2.34-1.347-3.517-1.951-2.289-1.176-3.446-.713-5.718-.123-6.059,1.574-11.491,5.077-10.582,12.281,1.223,9.693,13.687,12.413,19.864,5.742,2.744-2.964-.446-7.041,4.719-9.449.269-.125,2.713-1.055,2.818-.95.079.079-.557,1.787-.625,2.15-.153.825-.116,1.652-.328,2.489-.979,3.867-4.516,3.262-6.421,6.256,1.7-.566,2.994-1.276,4.632-.076.229.168,2.053,2.059,1.829,2.271-.035.033-.684-.113-.955-.085-.904.091-1.694.353-2.639.241-1.301-.154-2.391-1.365-3.779-1.234.629-.666,4.386.069,4.556-.082.428-.381-2.163-.665-2.358-.66-3.165.072-5.897,3.654-10.774,3.651-7.336-.005-8.69-4.065-11.543-9.342-1.852-3.425-3.004-2.421-5.438-4.338-1.572-1.238-1.772-3.078-3.523-3.977-.01-.233.641-.292.797-.318,1.689-.288,3.921.028,5.25,1.19,1.928,1.685,1.608,4.632,2.898,6.67-.156-3,.501-5.568-1.033-8.369-1.115-2.036-3.563-2.491-4.645-4.801-.779-1.664-.403-3.041-.826-4.643-.086-.326-.767-1.439-.703-1.491.226-.187,2.68.39,3.121.565,4.251,1.681,4.249,5.549,4.087,9.377ZM14.858,31.092c-.336-2.633-1.335-5.455-3.313-7.29l3.313,7.29ZM12.668,35.356c-.376-.365-.938-.8-1.4-1.046-.072-.038-1.047-.597-.966-.278l3.893,3.771c-.281-.88-.869-1.808-1.527-2.447ZM41.205,38.55c-.42-.418-3.401,4.559-3.147,5.219l3.147-5.219Z"/>
      <path class="st3" d="M26.193,28.964c13.687-.99,13.608,19.967.06,18.945-11.363-.857-11.532-18.116-.06-18.945ZM26.359,30.041c-10.713.781-10.017,17.775,1.712,16.708,10.425-.948,9.542-17.529-1.712-16.708Z"/>
      <path class="st3" d="M29.689,26.122l11.845-.039c.231.131.219.265.257.489.08.476.089,4.912-.002,5.312-.032.138-.018.248-.169.328-.152.081-3.054.075-3.442.044-3.4-.272-4.659-2.664-7.641-3.71-1.45-.509-2.798-.648-4.328-.685l.828-.413c2.272-.59,3.429-1.053,5.718.123,1.177.605,2.135,1.816,3.517,1.951.249.024,1.562.049,1.618-.211.041-.193-1.744-.305-2.184-.465-1.914-.696-3.54-3.223-6.184-2.558-.008-.099.131-.119.166-.165Z"/>
      <path class="st3" d="M23.972,19.245c-.407,1.287-.752,2.638-1.243,3.894-.114.292-.639,1.703-.746,1.823-.192.215-1.624.73-2.044.98-1.158.691-2.427,1.87-2.721,3.243,2.775-3.534,7.4-3.326,11.476-3.063-4.187,2.17-7.776.901-11.268,5.717l-.579.579c-.268-1.92.104-3.917-.093-5.831-.063-.617-1.008-3.277-.946-3.444.157-.424,7.204-3.438,8.164-3.898ZM17.136,29.27v.083l.041-.041-.041-.041Z"/>
      <path class="st3" d="M32.92,19.908c.755-.926,1.313-4.742,2.071-5.965.517-.237,2.718-1.422,3.063-1.284.283.113,1.75,3.676,1.643,4.04-.106.36-5.969,2.945-6.778,3.209Z"/>
      <path class="st3" d="M31.511,15.599l-2.071,5.965c-1.26.599-2.546,1.152-3.811,1.74l1.906-5.8c1.329-.626,2.644-1.282,3.977-1.906Z"/>
      <path class="st3" d="M15.355,32.253l-.083-.331c.001.017.158.197.083.331Z"/>
      <path class="st3" d="M15.272,31.341l.083-.331c-.007.181-.083.314-.083.331Z"/>
      <path class="st3" d="M15.355,30.761l.083-.249c-.007.175-.082.235-.083.249Z"/>
      <polygon class="st5" points="17.136 29.27 17.178 29.311 17.136 29.353 17.136 29.27"/>
      <path class="st0" d="M34.576,14.889c.133-.384.27-.713.415-.947-1.164.535-2.318,1.114-3.48,1.657l-2.071,5.965c.791-.376,1.543-.758,2.32-1.16.306-.158.841-.105,1.16-.497.477-.585.875-2.32,1.294-3.829.175-.456.304-.862.362-1.19Z"/>
      <path class="st0" d="M23.972,19.245c-.29.917-.55,1.865-.852,2.789-.186.52-.338.95-.391,1.105-.114.292-.639,1.704-.746,1.823,1.257-.456,2.437-1.096,3.646-1.657l1.906-5.8c-1.198.564-2.372,1.169-3.563,1.74Z"/>
      <path class="st3" d="M26.359,30.455c10.975-.87,11.599,15.403,1.298,15.963-10.772.586-11.481-15.156-1.298-15.963ZM26.602,31.693c-2.594.422-2.168,4.694.631,4.529,3.05-.179,2.599-5.055-.631-4.529ZM22.128,36.085c-2.44.352-2.438,4.204-.095,4.528,3.657.506,3.453-5.013.095-4.528ZM31.41,36.084c-2.79.237-2.656,4.556.143,4.616,3.183.068,3.07-4.889-.143-4.616ZM26.765,37.16c-1.487.325-.898,3.042.852,2.342,1.308-.523.756-2.693-.852-2.342ZM26.769,40.56c-2.868.322-2.423,4.933.716,4.527,2.715-.351,2.307-4.867-.716-4.527Z"/>
    </g>
  </g>
</svg>