<?xml version="1.0" encoding="UTF-8"?>
<svg id="Calque_1" xmlns="http://www.w3.org/2000/svg" version="1.1" viewBox="0 0 253.593 64.166">
  <!-- Generator: Adobe Illustrator 29.6.1, SVG Export Plug-In . SVG Version: 2.1.1 Build 9)  -->
  <defs>
    <style>
      .st0 {
        fill: #121f31;
      }

      .st1 {
        fill: #fff;
      }

      .st2 {
        fill: #111d30;
      }

      .st3 {
        fill: #3a9d8a;
      }

      .st4 {
        fill: #0e4159;
      }

      .st5 {
        fill: #1e3a5f;
      }

      .st6 {
        fill: #f28a19;
      }
    </style>
  </defs>
  <rect class="st5" x="0" y="0" width="253.593" height="64.166"/>
  <g>
    <path class="st6" d="M66.604,38.478c-1.524-1.418-2.286-3.32-2.286-5.704,0-.62.023-1.085.071-1.395l.893-7.223c.214-1.812.804-3.409,1.768-4.792.965-1.382,2.216-2.455,3.751-3.218,1.537-.763,3.257-1.145,5.163-1.145,2.644,0,4.734.668,6.27,2.003,1.537,1.335,2.305,3.135,2.305,5.4,0,.238-.024.643-.072,1.216,0,.095-.053.179-.16.25s-.232.119-.375.143l-5.538.358h-.107c-.286,0-.405-.131-.357-.393.023-.119.036-.298.036-.536,0-.835-.239-1.49-.715-1.967-.477-.477-1.132-.715-1.965-.715-.929,0-1.71.292-2.34.876-.631.585-1.006,1.365-1.125,2.343l-.929,7.689c-.024.119-.036.298-.036.536,0,.81.244,1.454.733,1.931.488.478,1.137.715,1.947.715.929,0,1.703-.291,2.322-.876.619-.584.988-1.353,1.107-2.306.024-.119.084-.221.179-.305.095-.083.226-.112.394-.089l5.466.286c.334.048.488.167.465.358-.214,1.717-.798,3.231-1.751,4.541-.953,1.312-2.197,2.331-3.733,3.058-1.537.728-3.257,1.091-5.163,1.091-2.62,0-4.693-.71-6.217-2.128v-.002Z"/>
    <path class="st6" d="M84.879,40.177c-.084-.095-.113-.226-.089-.393l2.966-23.96c.023-.166.083-.298.179-.393.095-.095.226-.143.393-.143h5.466c.167,0,.292.048.375.143.083.096.113.227.089.393l-2.929,23.96c-.024.167-.089.298-.197.393-.107.096-.244.143-.411.143h-5.466c-.167,0-.292-.047-.375-.143h0Z"/>
    <path class="st6" d="M110.727,15.431c.095-.095.226-.143.393-.143h5.466c.167,0,.292.048.375.143.083.096.113.227.089.393l-2.929,23.96c-.024.167-.089.298-.197.393-.107.096-.244.143-.411.143h-5.216c-.286,0-.477-.119-.572-.358l-5.573-12.087c-.048-.095-.096-.131-.143-.107-.048.024-.084.084-.107.179l-1.357,11.837c-.024.167-.089.298-.197.393-.107.096-.244.143-.411.143h-5.466c-.167,0-.292-.047-.375-.143-.084-.095-.113-.226-.089-.393l2.966-23.96c.023-.166.083-.298.179-.393.095-.095.226-.143.393-.143h5.216c.309,0,.512.119.607.358l5.502,12.087c.047.095.095.131.143.107.047-.023.083-.083.107-.179l1.429-11.837c.023-.166.083-.298.179-.393h0Z"/>
    <path class="st6" d="M136.558,20.902c-.096.096-.227.143-.394.143h-10.325c-.12,0-.203.072-.251.214l-.393,3.29c-.024.143.036.214.179.214h6.395c.143,0,.255.048.339.143.083.096.113.227.089.393l-.572,4.649c-.024.167-.084.298-.179.393-.096.096-.227.143-.393.143h-6.395c-.143,0-.214.071-.214.214l-.465,3.648c0,.142.059.214.179.214h10.325c.166,0,.292.048.375.143s.112.226.089.393l-.572,4.685c-.024.167-.089.298-.196.393-.107.096-.232.143-.375.143h-16.541c-.167,0-.292-.047-.375-.143-.084-.095-.113-.226-.089-.393l2.966-23.96c.023-.166.083-.298.179-.393.095-.095.226-.143.393-.143h16.541c.143,0,.256.048.34.143.083.096.112.227.089.393l-.572,4.685c-.024.167-.084.298-.179.393l.002.003ZM125.982,12.856c0-.119.036-.226.107-.321l2.108-3.29c.166-.262.393-.393.679-.393h4.68c.262,0,.393.084.393.25,0,.096-.06.227-.179.394l-2.823,3.361c-.191.215-.417.322-.679.322h-3.858c-.286,0-.429-.107-.429-.322h0Z"/>
    <path class="st1" d="M155.493,17.165c1.31,1.252,1.965,2.95,1.965,5.096,0,.549-.024.965-.071,1.252-.191,1.597-.721,3.004-1.59,4.22-.869,1.215-1.989,2.158-3.359,2.825-1.37.668-2.9,1.002-4.591,1.002h-3.644c-.119,0-.203.071-.251.214l-.964,8.011c-.024.167-.089.298-.197.393-.107.096-.244.143-.41.143h-5.467c-.167,0-.292-.047-.375-.143-.084-.095-.113-.226-.089-.393l2.966-23.96c.024-.166.083-.298.179-.393.095-.095.226-.143.393-.143h10.147c2.262,0,4.049.626,5.359,1.877h0ZM150.009,25.39c.607-.536.911-1.233.911-2.092,0-.691-.232-1.24-.696-1.645s-1.09-.608-1.876-.608h-2.858c-.119,0-.202.072-.25.214l-.572,4.721c0,.143.059.214.179.214h2.894c.904,0,1.661-.268,2.269-.805h0Z"/>
    <path class="st1" d="M172.767,15.431c.107-.095.232-.143.375-.143h5.502c.143,0,.256.048.34.143.083.096.112.227.089.393l-2.93,23.96c-.024.167-.089.298-.196.393-.107.096-.232.143-.375.143h-5.502c-.143,0-.256-.047-.339-.143-.084-.095-.114-.226-.089-.393l1.107-9.048c0-.142-.06-.214-.179-.214h-5.359c-.143,0-.214.072-.214.214l-1.107,9.048c-.024.167-.089.298-.197.393-.107.096-.244.143-.411.143h-5.466c-.167,0-.292-.047-.375-.143-.084-.095-.113-.226-.089-.393l2.966-23.96c.023-.166.083-.298.179-.393.095-.095.226-.143.393-.143h5.466c.167,0,.292.048.375.143.083.096.113.227.089.393l-1.072,8.726c-.024.143.036.214.179.214h5.324c.143,0,.226-.071.25-.214l1.072-8.726c.024-.166.089-.298.197-.393h-.003Z"/>
    <path class="st1" d="M183.235,39.748c-1.299-.667-2.299-1.609-3.001-2.825-.703-1.216-1.054-2.646-1.054-4.291,0-.476.036-.965.107-1.466l.822-6.723c.238-1.859.845-3.504,1.822-4.935.976-1.43,2.245-2.54,3.805-3.326,1.56-.786,3.305-1.18,5.234-1.18,1.762,0,3.299.328,4.608.983,1.31.657,2.317,1.586,3.019,2.79s1.054,2.616,1.054,4.238c0,.453-.036.93-.107,1.43l-.822,6.723c-.214,1.907-.816,3.582-1.805,5.024-.988,1.443-2.269,2.563-3.841,3.362-1.571.798-3.322,1.198-5.252,1.198-1.763,0-3.293-.334-4.591-1.001h.002ZM191.006,34.008c.666-.655,1.059-1.532,1.179-2.628l.858-7.009c.024-.143.036-.358.036-.644,0-.906-.25-1.627-.75-2.163s-1.191-.805-2.072-.805c-.953,0-1.763.328-2.43.983-.667.656-1.06,1.532-1.179,2.628l-.857,7.009c-.024.143-.036.358-.036.644,0,.906.251,1.627.751,2.163s1.179.805,2.036.805c.976,0,1.798-.328,2.465-.983h-.001Z"/>
    <path class="st1" d="M212.192,39.927l-2.68-9.048c-.048-.119-.131-.179-.25-.179h-1.358c-.119,0-.202.072-.25.214l-1.072,8.869c-.024.167-.089.298-.197.393-.107.096-.244.143-.411.143h-5.466c-.167,0-.292-.047-.375-.143-.084-.095-.113-.226-.089-.393l2.966-23.96c.023-.166.083-.298.179-.393.095-.095.226-.143.393-.143h10.504c2.144,0,3.846.608,5.109,1.824s1.894,2.861,1.894,4.935c0,.238-.024.643-.072,1.216-.191,1.573-.732,2.95-1.625,4.13s-2.031,2.044-3.412,2.593c-.071.024-.119.066-.143.125-.024.06-.024.114,0,.161l3.215,9.405c.024.048.036.12.036.215,0,.119-.048.221-.143.304-.096.084-.227.125-.393.125h-5.824c-.286,0-.465-.131-.536-.393h0ZM208.833,21.259l-.5,4.112c0,.143.059.215.179.215h3.215c.809,0,1.483-.238,2.019-.715s.804-1.097.804-1.86c0-.596-.209-1.073-.625-1.43s-.959-.536-1.625-.536h-3.215c-.12,0-.203.072-.251.214h0Z"/>
    <path class="st1" d="M221.463,40.177c-.084-.095-.113-.226-.089-.393l2.966-23.96c.023-.166.083-.298.179-.393.095-.095.226-.143.393-.143h5.466c.167,0,.292.048.375.143.083.096.113.227.089.393l-2.929,23.96c-.024.167-.089.298-.197.393-.107.096-.244.143-.411.143h-5.466c-.167,0-.292-.047-.375-.143h-.001Z"/>
    <path class="st1" d="M246.203,39.855l-.393-2.753c-.024-.119-.096-.179-.214-.179h-7.253c-.095,0-.179.06-.25.179l-1.107,2.753c-.096.31-.31.465-.643.465h-5.895c-.405,0-.536-.203-.393-.608l10.254-23.996c.119-.286.334-.429.643-.429h7.36c.286,0,.465.143.536.429l4.359,23.996v.142c0,.31-.179.465-.536.465h-5.931c-.334,0-.512-.155-.536-.465h0ZM240.451,31.773h4.252c.143,0,.214-.083.214-.25l-1.215-7.903c-.024-.095-.066-.143-.125-.143s-.113.048-.16.143l-3.109,7.903c-.024.167.024.25.143.25h0Z"/>
  </g>
  <g>
    <path class="st3" d="M14.562,31.316l-.132.395c-.007.132.005.263,0,.395l-.132.526c-.003.302-.024.623,0,.922l.132.526,1.05,3.818c.51-1.582,1.266-3.133,2.238-4.478,5.546-7.656,11.245-5.637,17.892-9.087,3.816-1.979,4.275-5.198,9.413-5.274,1.055-.016,2.134.468,3.216.138-3.048,4.502-7.462.499-11.051,5.135-.056.072-.277.104-.263.262,4.198-1.057,6.781,2.96,9.819,4.067.7.255,3.533.434,3.468.739-.088.414-2.174.374-2.569.335-2.195-.214-3.715-2.14-5.586-3.101-3.635-1.869-5.472-1.134-9.081-.195-9.622,2.503-18.248,8.069-16.805,19.52,1.941,15.406,21.735,19.729,31.543,9.126,4.357-4.711-.709-11.192,7.493-15.019.427-.199,4.308-1.678,4.476-1.51.126.126-.884,2.84-.992,3.417-.243,1.31-.183,2.626-.52,3.957-1.556,6.146-7.171,5.184-10.196,9.944,2.699-.899,4.754-2.028,7.356-.121.364.267,3.261,3.273,2.904,3.609-.056.053-1.086-.179-1.516-.136-1.436.145-2.69.562-4.19.384-2.066-.246-3.797-2.17-6.001-1.961,1-1.059,6.964.11,7.235-.13.681-.605-3.434-1.057-3.745-1.05-5.025.115-9.365,5.808-17.108,5.803-11.649-.007-13.8-6.461-18.33-14.849-2.941-5.445-4.769-3.848-8.636-6.896-2.497-1.968-2.813-4.893-5.594-6.321-.016-.37,1.019-.464,1.267-.506,2.683-.458,6.226.045,8.338,1.891,3.061,2.678,2.553,7.363,4.602,10.6-.248-4.769.795-8.851-1.64-13.302-1.77-3.236-5.659-3.959-7.375-7.63-1.237-2.645-.639-4.833-1.312-7.379-.137-.518-1.218-2.287-1.116-2.37.359-.297,4.255.62,4.956.898,6.749,2.672,6.747,8.819,6.489,14.904h0ZM13.639,32.237c-.534-4.185-2.12-8.672-5.262-11.586l5.262,11.586ZM10.163,39.015c-.597-.581-1.489-1.272-2.223-1.663-.114-.061-1.662-.949-1.534-.441l6.181,5.993c-.446-1.398-1.379-2.874-2.425-3.889h.001ZM55.479,44.092c-.666-.663-5.401,7.247-4.998,8.294,0,0,4.998-8.294,4.998-8.294Z"/>
    <path class="st2" d="M31.64,28.854c21.735-1.573,21.609,31.736.095,30.112-18.044-1.362-18.313-28.794-.095-30.112ZM31.903,30.567c-17.012,1.241-15.907,28.253,2.718,26.557,16.554-1.507,15.152-27.861-2.718-26.557Z"/>
    <path class="st2" d="M37.191,24.337l18.809-.062c.368.209.347.42.408.777.128.757.141,7.806-.003,8.442-.05.22-.03.395-.269.522-.241.129-4.851.119-5.465.071-5.399-.433-7.398-4.235-12.133-5.896-2.303-.808-4.442-1.03-6.873-1.089l1.314-.657c3.608-.939,5.446-1.674,9.081.195,1.869.962,3.39,2.886,5.586,3.101.395.038,2.481.077,2.569-.335.065-.307-2.768-.486-3.468-.739-3.038-1.105-5.621-5.123-9.819-4.067-.014-.157.208-.19.263-.262h-.001Z"/>
    <path class="st2" d="M28.114,13.407c-.646,2.045-1.194,4.194-1.974,6.189-.182.464-1.015,2.707-1.184,2.897-.305.342-2.579,1.16-3.246,1.559-1.839,1.097-3.854,2.972-4.322,5.154,4.407-5.617,11.751-5.287,18.223-4.87-6.649,3.449-12.347,1.431-17.892,9.087l-.92.921c-.425-3.051.164-6.226-.148-9.268-.1-.981-1.601-5.207-1.503-5.474.25-.674,11.439-5.464,12.963-6.195h.001ZM17.258,29.341v.132l.065-.066-.065-.066h0Z"/>
    <path class="st2" d="M42.322,14.46c1.199-1.472,2.085-7.536,3.289-9.481.821-.377,4.315-2.26,4.864-2.04.449.179,2.779,5.842,2.61,6.421-.168.572-9.479,4.681-10.763,5.101h0Z"/>
    <path class="st2" d="M40.085,7.613l-3.289,9.481c-2.001.951-4.043,1.831-6.052,2.766l3.026-9.218c2.111-.994,4.198-2.039,6.315-3.029Z"/>
    <path class="st4" d="M14.43,34.082l-.132-.526c.003.027.251.313.132.526Z"/>
    <path class="st4" d="M14.299,32.633l.132-.526c-.011.289-.132.499-.132.526Z"/>
    <path class="st4" d="M14.43,31.712l.132-.395c-.012.278-.13.374-.132.395Z"/>
    <polygon class="st0" points="17.258 29.341 17.325 29.408 17.258 29.473 17.258 29.341"/>
    <path class="st6" d="M44.952,6.484c.212-.61.429-1.134.659-1.506-1.849.849-3.681,1.77-5.526,2.634l-3.289,9.481c1.256-.597,2.451-1.204,3.684-1.843.486-.251,1.335-.167,1.842-.789.757-.929,1.389-3.688,2.055-6.085.278-.724.483-1.37.575-1.891h0Z"/>
    <path class="st6" d="M28.114,13.407c-.46,1.457-.874,2.965-1.352,4.434-.296.827-.537,1.511-.621,1.757-.182.464-1.015,2.707-1.184,2.897,1.997-.724,3.87-1.742,5.789-2.634l3.026-9.218c-1.903.897-3.767,1.858-5.658,2.766h0Z"/>
    <path class="st2" d="M31.903,31.225c17.427-1.384,18.419,24.482,2.062,25.372-17.106.932-18.23-24.088-2.062-25.372ZM32.289,33.193c-4.119.671-3.443,7.46,1.001,7.2,4.844-.285,4.128-8.035-1.001-7.2ZM25.185,40.173c-3.875.56-3.873,6.682-.152,7.197,5.808.804,5.484-7.968.152-7.197ZM39.925,40.172c-4.43.377-4.218,7.242.227,7.338,5.055.109,4.875-7.771-.227-7.338ZM32.549,41.881c-2.36.517-1.426,4.834,1.352,3.722,2.077-.831,1.2-4.281-1.352-3.722ZM32.556,47.285c-4.553.513-3.848,7.841,1.137,7.196,4.311-.559,3.664-7.736-1.137-7.196Z"/>
  </g>
  <g>
    <path class="st1" d="M66.975,55.469c-.487-.459-.731-1.076-.731-1.848,0-.101.009-.253.028-.455l.483-3.929c.073-.588.264-1.105.572-1.551.308-.446.707-.793,1.2-1.041.492-.248,1.041-.373,1.647-.373.827,0,1.487.226,1.979.676s.738,1.053.738,1.806c0,.092-.009.239-.028.441v.013c0,.037-.013.071-.042.103-.028.033-.064.048-.11.048l-.441.028c-.092,0-.128-.046-.11-.138v-.042c.018-.147.028-.261.028-.345,0-.588-.189-1.059-.566-1.413s-.882-.53-1.517-.53c-.709,0-1.303.209-1.786.627-.483.419-.769.973-.862,1.662l-.483,3.999c-.018.165-.028.281-.028.345,0,.599.189,1.074.566,1.428.376.354.887.53,1.53.53.698,0,1.289-.211,1.772-.634s.765-.979.848-1.668l.013-.028c0-.037.013-.067.042-.089s.059-.034.097-.034l.441.028c.083,0,.123.042.123.123-.073.579-.266,1.092-.579,1.538-.312.446-.715.793-1.206,1.041s-1.037.371-1.634.371c-.836,0-1.499-.229-1.986-.689Z"/>
    <path class="st1" d="M74.331,55.98c-.022-.028-.03-.059-.021-.097l.814-6.674c.009-.037.028-.068.055-.097s.059-.042.097-.042h.441c.046,0,.08.013.103.042s.03.059.021.097l-.827,6.674c0,.037-.013.068-.042.097-.028.028-.064.042-.11.042h-.441c-.037,0-.067-.013-.089-.042ZM75.276,47.535c-.11-.105-.165-.245-.165-.42,0-.229.073-.42.221-.572.147-.152.325-.227.538-.227.174,0,.316.055.428.165.11.11.165.257.165.441,0,.22-.074.404-.22.551-.147.147-.327.221-.538.221-.174,0-.316-.053-.428-.159h-.001Z"/>
    <path class="st1" d="M82.556,49.533c.367.364.551.848.551,1.454,0,.074-.009.193-.028.358l-.564,4.55c-.018.092-.068.138-.152.138h-.441c-.092,0-.129-.046-.11-.138l.538-4.412c.009-.064.013-.16.013-.29,0-.469-.138-.845-.413-1.13s-.648-.428-1.117-.428c-.533,0-.983.168-1.352.504s-.588.774-.663,1.316l-.538,4.44c-.018.092-.068.138-.152.138h-.441c-.046,0-.08-.013-.103-.042s-.03-.059-.021-.097l.827-6.674c0-.037.013-.068.042-.097.028-.028.064-.042.11-.042h.441c.037,0,.067.013.089.042.022.028.03.059.021.097l-.083.676c0,.055.018.064.055.028.229-.303.514-.535.856-.697.34-.16.722-.241,1.144-.241.625,0,1.122.181,1.49.544h0Z"/>
    <path class="st1" d="M88.32,55.2c.331-.198.597-.471.799-.82.055-.083.114-.105.18-.068l.331.178c.073.055.088.116.042.18-.257.45-.612.81-1.062,1.076s-.961.4-1.53.4c-.634,0-1.15-.156-1.545-.469-.395-.312-.639-.74-.731-1.282-.037-.174-.055-.38-.055-.619,0-.276.033-.685.097-1.227.055-.45.101-.79.138-1.021.037-.23.092-.441.165-.634.221-.579.572-1.043,1.055-1.392s1.041-.524,1.676-.524c.772,0,1.349.211,1.731.634.38.422.572,1.007.572,1.751,0,.248-.037.685-.11,1.31-.018.092-.068.138-.152.138h-4.357c-.037,0-.059.018-.068.055-.055.395-.083.712-.083.951,0,.515.159.924.475,1.227s.756.455,1.316.455c.413,0,.786-.098,1.117-.297h0ZM85.59,52.132c-.009.037.004.055.042.055h3.738c.037,0,.055-.018.055-.055.037-.294.055-.579.055-.856,0-.487-.149-.884-.449-1.193-.299-.308-.706-.462-1.22-.462-.487,0-.908.131-1.261.394-.354.261-.6.609-.738,1.041-.064.165-.138.524-.22,1.076h-.001ZM87.513,48.113c-.013-.033-.003-.071.034-.117l.992-1.517c.046-.064.105-.097.18-.097h.386c.055,0,.089.016.103.048s.003.071-.034.117l-1.076,1.517c-.064.064-.125.097-.18.097h-.303c-.055,0-.089-.016-.103-.048Z"/>
    <path class="st1" d="M100.66,49.493c.34.336.511.798.511,1.386,0,.073-.009.202-.028.386l-.579,4.633c0,.037-.013.068-.042.097-.028.028-.064.042-.11.042h-.428c-.037,0-.067-.013-.089-.042s-.03-.059-.021-.097l.551-4.495c.009-.064.013-.165.013-.303,0-.45-.134-.807-.4-1.068s-.621-.392-1.062-.392c-.515,0-.949.156-1.303.468-.354.313-.563.735-.628,1.269l-.551,4.523c-.009.037-.028.068-.055.097s-.059.042-.097.042h-.428c-.046,0-.08-.013-.103-.042s-.03-.059-.021-.097l.551-4.495c.009-.073.013-.174.013-.303,0-.45-.129-.807-.386-1.068-.257-.261-.606-.392-1.047-.392-.524,0-.961.156-1.31.468-.349.313-.557.735-.621,1.269l-.551,4.523c-.018.092-.068.138-.152.138h-.441c-.046,0-.08-.013-.103-.042s-.03-.059-.021-.097l.827-6.674c0-.037.013-.068.042-.097.028-.028.064-.042.11-.042h.441c.037,0,.067.013.089.042s.03.059.021.097l-.068.621c-.009.018-.004.033.013.042s.033.004.042-.013c.23-.294.513-.515.848-.663s.701-.22,1.096-.22c.459,0,.845.103,1.159.31.312.206.529.499.648.875.009.037.028.042.055.013.239-.395.55-.694.931-.897.382-.202.811-.303,1.289-.303.588,0,1.053.168,1.392.504v-.003Z"/>
    <path class="st1" d="M107.954,49.086h.441c.083,0,.125.046.125.138l-.827,6.674c-.018.092-.068.138-.152.138h-.441c-.092,0-.128-.046-.11-.138l.097-.854c.009-.028.004-.043-.013-.048-.018-.004-.033.007-.042.034-.229.349-.514.622-.854.82s-.735.297-1.185.297c-.588,0-1.076-.172-1.462-.517s-.606-.798-.663-1.358c-.009-.073-.013-.193-.013-.358,0-.229.022-.564.068-1.007l.042-.331c.064-.468.117-.827.159-1.076s.103-.477.186-.689c.202-.542.535-.983,1-1.324.463-.34.995-.51,1.592-.51.441,0,.807.097,1.096.29s.504.465.642.814c.009.018.021.028.034.028s.025-.013.034-.042l.097-.842c.018-.092.068-.138.152-.138v-.003ZM107.259,53.566c.033-.165.076-.496.131-.994.073-.597.11-.997.11-1.2,0-.128-.004-.229-.013-.303-.018-.423-.163-.769-.434-1.041-.27-.27-.636-.407-1.096-.407-.468,0-.882.138-1.24.413-.358.276-.608.625-.744,1.049-.055.147-.1.306-.131.475-.033.169-.076.504-.131,1-.083.652-.125,1.071-.125,1.255,0,.101.004.175.013.22.018.423.178.772.483,1.049.303.276.685.414,1.144.414.469,0,.871-.138,1.206-.414.336-.275.567-.625.697-1.049.055-.147.098-.303.131-.468h0Z"/>
    <path class="st1" d="M110.05,55.821c-.11-.105-.165-.245-.165-.42,0-.23.073-.42.22-.572.147-.152.331-.227.551-.227.174,0,.315.055.42.165s.159.257.159.441c0,.221-.073.406-.22.551-.147.147-.325.221-.538.221-.175,0-.316-.053-.428-.159Z"/>
    <path class="st1" d="M123.439,46.99c-.028.028-.059.042-.097.042h-5.075c-.037,0-.055.018-.055.055l-.469,3.723c0,.037.018.055.055.055h3.599c.092,0,.128.046.11.138l-.042.371c-.018.092-.068.138-.152.138h-3.599c-.037,0-.055.018-.055.055l-.468,3.764c0,.037.018.055.055.055h5.061c.083,0,.123.046.123.138l-.055.371c0,.037-.013.068-.042.097s-.064.042-.11.042h-5.695c-.092,0-.128-.046-.11-.138l1.144-9.377c.018-.092.068-.138.152-.138h5.695c.046,0,.08.013.103.042s.03.059.021.097l-.042.371c-.009.037-.028.068-.055.097l.002.003ZM120.164,45.411c-.013-.033-.003-.071.034-.117l.994-1.517c.046-.064.105-.097.178-.097h.386c.055,0,.089.016.103.048.013.033.003.071-.034.117l-1.076,1.517c-.064.064-.125.097-.18.097h-.303c-.055,0-.089-.016-.103-.048Z"/>
    <path class="st1" d="M133.31,49.493c.34.336.511.798.511,1.386,0,.073-.009.202-.028.386l-.579,4.633c0,.037-.013.068-.042.097-.028.028-.064.042-.11.042h-.428c-.037,0-.067-.013-.089-.042s-.03-.059-.021-.097l.551-4.495c.009-.064.013-.165.013-.303,0-.45-.134-.807-.4-1.068s-.621-.392-1.062-.392c-.515,0-.949.156-1.303.468-.354.313-.563.735-.628,1.269l-.551,4.523c-.009.037-.028.068-.055.097s-.059.042-.097.042h-.428c-.046,0-.08-.013-.103-.042s-.03-.059-.021-.097l.551-4.495c.009-.073.013-.174.013-.303,0-.45-.129-.807-.386-1.068-.257-.261-.606-.392-1.047-.392-.524,0-.961.156-1.31.468-.349.313-.557.735-.621,1.269l-.551,4.523c-.018.092-.068.138-.152.138h-.441c-.046,0-.08-.013-.103-.042s-.03-.059-.021-.097l.827-6.674c0-.037.013-.068.042-.097.028-.028.064-.042.11-.042h.441c.037,0,.067.013.089.042s.03.059.021.097l-.068.621c-.009.018-.004.033.013.042s.033.004.042-.013c.23-.294.513-.515.848-.663s.701-.22,1.096-.22c.459,0,.845.103,1.159.31.312.206.529.499.648.875.009.037.028.042.055.013.239-.395.55-.694.931-.897.382-.202.811-.303,1.289-.303.588,0,1.053.168,1.392.504v-.003Z"/>
    <path class="st1" d="M136.186,55.643c-.4-.336-.646-.793-.738-1.373-.018-.101-.028-.27-.028-.51,0-.367.033-.772.097-1.214.083-.753.198-1.324.345-1.71.23-.57.588-1.024,1.076-1.358.487-.336,1.049-.504,1.683-.504.625,0,1.144.169,1.558.51.413.34.657.792.731,1.352.018.092.028.248.028.468,0,.276-.033.689-.097,1.24-.055.423-.108.764-.159,1.021s-.113.492-.186.703c-.23.57-.591,1.025-1.083,1.365-.492.34-1.05.511-1.676.511-.634,0-1.151-.168-1.551-.504h0ZM139.076,55.09c.367-.272.625-.628.772-1.068.101-.266.193-.753.275-1.462.073-.57.11-.988.11-1.255,0-.496-.153-.9-.462-1.214s-.719-.469-1.234-.469c-.478,0-.899.134-1.261.4-.364.266-.624.625-.78,1.076-.11.303-.202.79-.276,1.462-.064.56-.097.952-.097,1.172,0,.138.004.235.013.29.037.45.204.81.504,1.076.299.266.688.4,1.165.4s.9-.135,1.269-.407h.003Z"/>
    <path class="st1" d="M146.01,49.665c-.028.028-.064.042-.11.042h-1.558c-.028,0-.051.018-.068.055l-.523,4.357c-.018.165-.028.275-.028.331,0,.349.094.593.282.731.189.138.48.206.876.206h.316c.092,0,.128.046.11.138l-.042.371c-.018.092-.068.138-.152.138l-.4.013c-.562,0-.986-.097-1.275-.29-.29-.193-.435-.547-.435-1.062,0-.073.009-.202.028-.386l.551-4.55c0-.037-.013-.055-.042-.055h-.814c-.037,0-.067-.013-.089-.042s-.03-.059-.021-.097l.042-.345c.018-.092.068-.138.152-.138h.801c.028,0,.051-.018.068-.055l.193-1.572c0-.037.013-.068.042-.097.028-.028.059-.042.097-.042h.441c.037,0,.067.013.089.042s.03.059.021.097l-.193,1.572c0,.037.013.055.042.055h1.572c.092,0,.128.046.11.138l-.042.345c0,.037-.013.068-.042.097h0Z"/>
    <path class="st1" d="M147.466,55.98c-.022-.028-.03-.059-.021-.097l.814-6.674c.009-.037.028-.068.055-.097s.059-.042.097-.042h.441c.046,0,.08.013.103.042s.03.059.021.097l-.827,6.674c0,.037-.013.068-.042.097-.028.028-.064.042-.11.042h-.441c-.037,0-.067-.013-.089-.042ZM148.409,47.535c-.11-.105-.165-.245-.165-.42,0-.229.073-.42.221-.572.147-.152.325-.227.538-.227.174,0,.316.055.428.165.11.11.165.257.165.441,0,.22-.074.404-.22.551-.147.147-.327.221-.538.221-.174,0-.316-.053-.428-.159h-.001Z"/>
    <path class="st1" d="M151.56,55.643c-.4-.336-.646-.793-.738-1.373-.018-.101-.028-.27-.028-.51,0-.367.033-.772.097-1.214.083-.753.198-1.324.345-1.71.23-.57.588-1.024,1.076-1.358.487-.336,1.049-.504,1.683-.504.625,0,1.144.169,1.558.51.413.34.657.792.731,1.352.018.092.028.248.028.468,0,.276-.033.689-.097,1.24-.055.423-.108.764-.159,1.021s-.113.492-.186.703c-.23.57-.591,1.025-1.083,1.365-.492.34-1.05.511-1.676.511-.634,0-1.151-.168-1.551-.504h0ZM154.449,55.09c.367-.272.625-.628.772-1.068.101-.266.193-.753.275-1.462.073-.57.11-.988.11-1.255,0-.496-.153-.9-.462-1.214s-.719-.469-1.234-.469c-.478,0-.899.134-1.261.4-.364.266-.624.625-.78,1.076-.11.303-.202.79-.276,1.462-.064.56-.097.952-.097,1.172,0,.138.004.235.013.29.037.45.204.81.504,1.076.299.266.688.4,1.165.4s.9-.135,1.269-.407h.003Z"/>
    <path class="st1" d="M162.888,49.533c.367.364.551.848.551,1.454,0,.074-.009.193-.028.358l-.564,4.55c-.018.092-.068.138-.152.138h-.441c-.092,0-.129-.046-.11-.138l.538-4.412c.009-.064.013-.16.013-.29,0-.469-.138-.845-.413-1.13s-.648-.428-1.117-.428c-.533,0-.983.168-1.352.504s-.588.774-.663,1.316l-.538,4.44c-.018.092-.068.138-.152.138h-.441c-.046,0-.08-.013-.103-.042s-.03-.059-.021-.097l.827-6.674c0-.037.013-.068.042-.097.028-.028.064-.042.11-.042h.441c.037,0,.067.013.089.042s.03.059.021.097l-.083.676c0,.055.018.064.055.028.229-.303.514-.535.856-.697.34-.16.722-.241,1.144-.241.625,0,1.122.181,1.49.544h0Z"/>
    <path class="st1" d="M165.528,55.643c-.409-.308-.614-.697-.614-1.165,0-.073.004-.134.013-.18l.028-.178c.018-.092.068-.138.152-.138h.413c.092,0,.129.046.11.138l-.013.152c-.028.22.021.425.146.614.123.189.312.34.564.455s.55.172.89.172c.533,0,.977-.138,1.331-.413.354-.276.53-.612.53-1.007,0-.23-.073-.419-.22-.566s-.319-.26-.517-.337-.499-.186-.903-.324c-.45-.147-.813-.282-1.083-.407s-.501-.297-.689-.517-.282-.496-.282-.827c0-.625.241-1.129.723-1.509s1.105-.572,1.869-.572c.663,0,1.19.152,1.585.455s.593.695.593,1.172c0,.092-.004.16-.013.206v.042c-.018.092-.068.138-.152.138h-.413c-.046,0-.08-.013-.104-.042s-.03-.059-.021-.097l.013-.042c.046-.349-.076-.642-.365-.876-.29-.233-.697-.351-1.22-.351-.496,0-.911.108-1.24.324-.331.215-.52.508-.566.876-.037.349.076.612.339.786s.677.354,1.248.538c.487.156.865.294,1.13.413.266.12.501.293.703.517.202.226.303.513.303.862,0,.092-.004.165-.013.22-.073.579-.349,1.046-.827,1.399s-1.076.53-1.793.53c-.68,0-1.224-.153-1.634-.462h0Z"/>
    <path class="st1" d="M171.726,55.821c-.11-.105-.165-.245-.165-.42,0-.23.073-.42.22-.572.147-.152.331-.227.551-.227.174,0,.315.055.42.165s.159.257.159.441c0,.221-.073.406-.22.551-.147.147-.325.221-.538.221-.175,0-.316-.053-.428-.159Z"/>
    <path class="st1" d="M185.115,46.99c-.028.028-.059.042-.097.042h-5.075c-.037,0-.055.018-.055.055l-.469,3.723c0,.037.018.055.055.055h3.599c.092,0,.128.046.11.138l-.042.371c-.018.092-.068.138-.152.138h-3.599c-.037,0-.055.018-.055.055l-.468,3.764c0,.037.018.055.055.055h5.061c.083,0,.123.046.123.138l-.055.371c0,.037-.013.068-.042.097s-.064.042-.11.042h-5.695c-.092,0-.128-.046-.11-.138l1.144-9.377c.018-.092.068-.138.152-.138h5.695c.046,0,.08.013.103.042s.03.059.021.097l-.042.371c-.009.037-.028.068-.055.097l.002.003Z"/>
    <path class="st1" d="M191.043,49.533c.367.364.551.848.551,1.454,0,.074-.009.193-.028.358l-.565,4.55c-.018.092-.068.138-.152.138h-.441c-.092,0-.129-.046-.11-.138l.538-4.412c.009-.064.013-.16.013-.29,0-.469-.138-.845-.413-1.13s-.648-.428-1.117-.428c-.533,0-.983.168-1.352.504s-.588.774-.663,1.316l-.538,4.44c-.018.092-.068.138-.152.138h-.441c-.046,0-.08-.013-.103-.042s-.03-.059-.021-.097l.827-6.674c0-.037.013-.068.042-.097.028-.028.064-.042.11-.042h.441c.037,0,.067.013.089.042s.03.059.021.097l-.083.676c0,.055.018.064.055.028.229-.303.514-.535.856-.697.34-.16.722-.241,1.144-.241.625,0,1.122.181,1.49.544h0Z"/>
    <path class="st1" d="M198.379,49.086h.441c.083,0,.123.046.123.138l-.827,6.661c-.129,1.038-.524,1.793-1.185,2.261-.661.469-1.543.68-2.647.634-.083-.018-.119-.068-.11-.152l.068-.4c0-.037.013-.068.042-.097.028-.028.064-.042.11-.042.948.037,1.662-.126,2.145-.49s.774-.94.876-1.731l.083-.689c.009-.028.007-.043-.007-.048-.013-.004-.03.003-.048.021-.496.634-1.15.952-1.958.952-.579,0-1.067-.163-1.462-.49-.395-.325-.63-.774-.704-1.344-.018-.202-.028-.367-.028-.496,0-.331.028-.731.083-1.2.055-.413.11-.758.165-1.034.055-.275.128-.524.22-.744.211-.542.547-.982,1.007-1.316.459-.336.983-.504,1.572-.504.819,0,1.396.312,1.737.937.009.018.022.022.042.013s.028-.022.028-.042l.083-.663c.018-.092.068-.138.152-.138h0ZM197.695,53.498c.033-.202.076-.514.131-.937s.089-.735.103-.937.016-.382.007-.538c-.018-.422-.165-.772-.441-1.049-.276-.275-.643-.413-1.104-.413-.469,0-.881.138-1.234.413-.354.276-.609.625-.765,1.049-.119.303-.22.79-.303,1.462-.046.404-.068.768-.068,1.089,0,.193.004.316.013.371.046.423.214.772.504,1.049s.668.413,1.138.413.871-.138,1.206-.413.567-.625.697-1.049c.046-.138.085-.308.117-.51h0Z"/>
    <path class="st1" d="M205.494,49.086h.441c.083,0,.125.046.125.138l-.827,6.674c-.018.092-.068.138-.152.138h-.441c-.092,0-.128-.046-.11-.138l.097-.854c.009-.028.004-.043-.013-.048s-.033.007-.042.034c-.229.349-.514.622-.854.82s-.735.297-1.185.297c-.588,0-1.076-.172-1.462-.517s-.606-.798-.663-1.358c-.009-.073-.013-.193-.013-.358,0-.229.022-.564.068-1.007l.042-.331c.064-.468.117-.827.159-1.076s.103-.477.186-.689c.202-.542.535-.983,1-1.324.463-.34.995-.51,1.592-.51.441,0,.807.097,1.096.29s.504.465.642.814c.009.018.021.028.034.028s.025-.013.034-.042l.097-.842c.018-.092.068-.138.152-.138v-.003ZM204.798,53.566c.033-.165.076-.496.131-.994.073-.597.11-.997.11-1.2,0-.128-.004-.229-.013-.303-.018-.423-.163-.769-.434-1.041-.27-.27-.636-.407-1.096-.407-.468,0-.882.138-1.24.413-.358.276-.608.625-.744,1.049-.055.147-.1.306-.131.475-.033.169-.076.504-.131,1-.083.652-.125,1.071-.125,1.255,0,.101.004.175.013.22.018.423.178.772.483,1.049.303.276.685.414,1.144.414.469,0,.871-.138,1.206-.414.336-.275.567-.625.697-1.049.055-.147.098-.303.131-.468h0Z"/>
    <path class="st1" d="M212.692,49.086h.441c.083,0,.123.046.123.138l-.827,6.661c-.129,1.038-.524,1.793-1.185,2.261-.661.469-1.543.68-2.647.634-.083-.018-.119-.068-.11-.152l.068-.4c0-.037.013-.068.042-.097.028-.028.064-.042.11-.042.948.037,1.662-.126,2.145-.49s.774-.94.876-1.731l.083-.689c.009-.028.007-.043-.007-.048-.013-.004-.03.003-.048.021-.496.634-1.15.952-1.958.952-.579,0-1.067-.163-1.462-.49-.395-.325-.63-.774-.704-1.344-.018-.202-.028-.367-.028-.496,0-.331.028-.731.083-1.2.055-.413.11-.758.165-1.034.055-.275.128-.524.22-.744.211-.542.547-.982,1.007-1.316.459-.336.983-.504,1.572-.504.819,0,1.396.312,1.737.937.009.018.022.022.042.013s.028-.022.028-.042l.083-.663c.018-.092.068-.138.152-.138h0ZM212.008,53.498c.033-.202.076-.514.131-.937s.089-.735.103-.937.016-.382.007-.538c-.018-.422-.165-.772-.441-1.049-.276-.275-.643-.413-1.104-.413-.469,0-.881.138-1.234.413-.354.276-.609.625-.765,1.049-.119.303-.22.79-.303,1.462-.046.404-.068.768-.068,1.089,0,.193.004.316.013.371.046.423.214.772.504,1.049s.668.413,1.138.413.871-.138,1.206-.413.567-.625.697-1.049c.046-.138.085-.308.117-.51h0Z"/>
    <path class="st1" d="M218.317,55.2c.331-.198.597-.471.799-.82.055-.083.114-.105.18-.068l.331.178c.073.055.088.116.042.18-.257.45-.612.81-1.062,1.076s-.961.4-1.53.4c-.634,0-1.15-.156-1.545-.469-.395-.312-.639-.74-.731-1.282-.037-.174-.055-.38-.055-.619,0-.276.033-.685.097-1.227.055-.45.101-.79.138-1.021.037-.23.092-.441.165-.634.221-.579.572-1.043,1.055-1.392.483-.349,1.041-.524,1.676-.524.772,0,1.349.211,1.731.634.38.422.572,1.007.572,1.751,0,.248-.037.685-.11,1.31-.018.092-.068.138-.152.138h-4.357c-.037,0-.059.018-.068.055-.055.395-.083.712-.083.951,0,.515.159.924.475,1.227.316.303.756.455,1.316.455.413,0,.786-.098,1.117-.297ZM215.587,52.132c-.009.037.004.055.042.055h3.738c.037,0,.055-.018.055-.055.037-.294.055-.579.055-.856,0-.487-.149-.884-.449-1.193-.299-.308-.706-.462-1.22-.462-.487,0-.908.131-1.261.394-.354.261-.6.609-.738,1.041-.064.165-.138.524-.22,1.076h-.002Z"/>
    <path class="st1" d="M230.657,49.493c.34.336.511.798.511,1.386,0,.073-.009.202-.028.386l-.579,4.633c0,.037-.013.068-.042.097-.028.028-.064.042-.11.042h-.428c-.037,0-.067-.013-.089-.042s-.03-.059-.021-.097l.551-4.495c.009-.064.013-.165.013-.303,0-.45-.134-.807-.4-1.068s-.621-.392-1.062-.392c-.515,0-.949.156-1.303.468-.354.313-.563.735-.628,1.269l-.551,4.523c-.009.037-.028.068-.055.097s-.059.042-.097.042h-.428c-.046,0-.08-.013-.103-.042s-.03-.059-.021-.097l.551-4.495c.009-.073.013-.174.013-.303,0-.45-.129-.807-.386-1.068-.257-.261-.606-.392-1.047-.392-.524,0-.961.156-1.31.468-.349.313-.557.735-.621,1.269l-.551,4.523c-.018.092-.068.138-.152.138h-.441c-.046,0-.08-.013-.103-.042s-.03-.059-.021-.097l.827-6.674c0-.037.013-.068.042-.097.028-.028.064-.042.11-.042h.441c.037,0,.067.013.089.042s.03.059.021.097l-.068.621c-.009.018-.004.033.013.042.018.009.033.004.042-.013.23-.294.513-.515.848-.663s.701-.22,1.096-.22c.459,0,.845.103,1.159.31.312.206.529.499.648.875.009.037.028.042.055.013.239-.395.55-.694.931-.897.382-.202.811-.303,1.289-.303.588,0,1.053.168,1.392.504v-.003Z"/>
    <path class="st1" d="M236.351,55.2c.331-.198.597-.471.799-.82.055-.083.114-.105.18-.068l.331.178c.073.055.088.116.042.18-.257.45-.612.81-1.062,1.076s-.961.4-1.53.4c-.634,0-1.15-.156-1.545-.469-.395-.312-.639-.74-.731-1.282-.037-.174-.055-.38-.055-.619,0-.276.033-.685.097-1.227.055-.45.101-.79.138-1.021.037-.23.092-.441.165-.634.221-.579.572-1.043,1.055-1.392.483-.349,1.041-.524,1.676-.524.772,0,1.349.211,1.731.634.38.422.572,1.007.572,1.751,0,.248-.037.685-.11,1.31-.018.092-.068.138-.152.138h-4.357c-.037,0-.059.018-.068.055-.055.395-.083.712-.083.951,0,.515.159.924.475,1.227.316.303.756.455,1.316.455.413,0,.786-.098,1.117-.297ZM233.622,52.132c-.009.037.004.055.042.055h3.738c.037,0,.055-.018.055-.055.037-.294.055-.579.055-.856,0-.487-.149-.884-.449-1.193-.299-.308-.706-.462-1.22-.462-.487,0-.908.131-1.261.394-.354.261-.6.609-.738,1.041-.064.165-.138.524-.22,1.076h-.002Z"/>
    <path class="st1" d="M244.749,49.533c.367.364.551.848.551,1.454,0,.074-.009.193-.028.358l-.565,4.55c-.018.092-.068.138-.152.138h-.441c-.092,0-.129-.046-.11-.138l.538-4.412c.009-.064.013-.16.013-.29,0-.469-.138-.845-.413-1.13s-.648-.428-1.117-.428c-.533,0-.983.168-1.352.504s-.588.774-.663,1.316l-.538,4.44c-.018.092-.068.138-.152.138h-.441c-.046,0-.08-.013-.103-.042s-.03-.059-.021-.097l.827-6.674c0-.037.013-.068.042-.097.028-.028.064-.042.11-.042h.441c.037,0,.067.013.089.042s.03.059.021.097l-.083.676c0,.055.018.064.055.028.229-.303.514-.535.856-.697.34-.16.722-.241,1.144-.241.625,0,1.122.181,1.49.544h0Z"/>
    <path class="st1" d="M250.484,49.665c-.028.028-.064.042-.11.042h-1.558c-.028,0-.051.018-.068.055l-.523,4.357c-.018.165-.028.275-.028.331,0,.349.094.593.282.731.189.138.48.206.876.206h.316c.092,0,.128.046.11.138l-.042.371c-.018.092-.068.138-.152.138l-.4.013c-.562,0-.986-.097-1.275-.29-.29-.193-.435-.547-.435-1.062,0-.073.009-.202.028-.386l.551-4.55c0-.037-.013-.055-.042-.055h-.814c-.037,0-.067-.013-.089-.042s-.03-.059-.021-.097l.042-.345c.018-.092.068-.138.152-.138h.801c.028,0,.051-.018.068-.055l.193-1.572c0-.037.013-.068.042-.097.028-.028.059-.042.097-.042h.441c.037,0,.067.013.089.042s.03.059.021.097l-.193,1.572c0,.037.013.055.042.055h1.572c.092,0,.128.046.11.138l-.042.345c0,.037-.013.068-.042.097h0Z"/>
    <path class="st1" d="M252.016,55.821c-.11-.105-.165-.245-.165-.42,0-.23.073-.42.22-.572.147-.152.331-.227.551-.227.174,0,.315.055.42.165s.159.257.159.441c0,.221-.073.406-.22.551-.147.147-.325.221-.538.221-.175,0-.316-.053-.428-.159h0Z"/>
  </g>
</svg>